<svg width="1262" height="1153" viewBox="0 0 1262 1153" fill="none" xmlns="http://www.w3.org/2000/svg">
<path d="M578.293 1.52272C519.093 8.82271 459.693 25.2228 404.793 49.5227C387.693 57.1227 350.893 75.5227 335.593 84.1227C315.593 95.5227 276.993 121.723 256.193 138.023C200.993 181.523 158.193 224.323 118.793 275.423C108.493 288.823 73.7932 340.223 70.0932 347.423C68.9932 349.623 65.9932 354.823 63.5932 358.923C57.0932 369.623 35.8932 412.723 27.9932 431.423C20.0932 449.723 6.79321 488.923 2.29321 506.723C-1.00679 519.723 -0.806787 521.823 3.29321 524.023C6.29321 525.623 7.79321 522.523 14.2932 500.323C38.1932 419.723 77.5932 344.123 131.193 276.023C170.193 226.523 206.893 189.823 260.693 146.823C302.293 113.523 365.393 76.1227 417.293 53.9227C435.893 46.0228 482.993 30.4227 504.193 25.1227C537.293 16.8227 599.893 6.92274 601.593 9.72273C602.493 11.1227 597.793 15.3227 572.793 35.6227C560.693 45.4227 535.693 65.8227 517.293 81.0227C498.893 96.1227 472.793 117.523 459.293 128.523C445.793 139.423 429.893 152.523 423.793 157.523C407.693 170.823 401.593 175.323 393.793 179.523C350.293 203.223 306.693 235.323 270.393 270.523C223.693 315.923 187.693 368.223 161.693 428.823C149.893 456.123 135.493 507.323 132.793 531.623C131.593 542.223 129.693 542.623 126.793 532.923L124.893 526.823L117.293 527.223C107.393 527.823 99.5932 531.823 91.2932 540.623C79.9932 552.723 74.7932 567.623 74.9932 587.523C75.2932 618.423 88.3932 639.623 110.793 645.623C120.693 648.323 124.693 647.323 127.593 641.623L128.993 638.723L129.693 644.623C130.093 647.823 131.793 658.523 133.393 668.323C148.793 760.223 192.493 845.723 259.293 914.423C318.593 975.423 385.393 1018.72 467.793 1049.82C506.593 1064.42 531.393 1070.92 583.593 1080.52C597.293 1083.02 609.893 1085.72 611.693 1086.42C615.493 1088.02 614.693 1084.72 619.293 1119.22C622.393 1142.62 623.593 1147.92 626.493 1151.02C628.593 1153.22 629.993 1153.42 633.693 1152.02C637.193 1150.72 638.593 1145.42 642.793 1116.02C646.893 1088.32 646.993 1087.52 648.693 1086.02C649.393 1085.52 655.793 1084.12 662.893 1082.92C732.893 1071.72 788.093 1055.02 843.193 1028.42C909.193 996.523 958.993 960.523 1005.79 911.023C1031.59 883.723 1052.19 856.523 1072.49 822.923C1079.49 811.323 1096.49 776.923 1101.59 764.023C1114.19 731.923 1124.29 694.723 1129.29 661.623C1130.99 650.623 1132.69 640.823 1132.99 640.023C1133.29 639.023 1133.99 639.823 1134.99 642.323C1136.89 647.023 1139.39 647.723 1148.19 646.123C1157.99 644.423 1164.39 640.823 1170.79 633.723C1181.69 621.723 1186.39 607.723 1186.59 587.023C1186.69 573.923 1184.49 564.323 1178.99 553.023C1174.69 544.223 1164.79 534.323 1156.09 530.023C1142.99 523.623 1136.99 525.123 1133.79 535.523C1132.79 538.523 1131.69 541.023 1131.29 541.023C1130.99 541.023 1129.39 534.123 1127.79 525.723C1119.29 479.123 1108.09 445.023 1088.09 404.823C1073.69 375.623 1064.29 359.423 1050.49 340.023C1006.39 278.023 948.693 225.923 880.293 186.523C856.393 172.723 855.693 172.223 808.793 133.623C787.393 116.023 756.893 90.9227 734.793 72.9227C688.393 35.1228 663.593 14.6227 661.293 12.4227L658.793 10.0227H662.793C669.193 10.0227 687.693 11.9227 702.793 14.1227C785.793 26.2227 875.093 61.4228 953.293 112.823C984.093 133.123 1011.99 154.423 1037.29 177.123C1051.49 189.723 1082.29 219.723 1090.19 228.423C1170.79 317.223 1220.79 405.523 1250.99 512.523L1253.79 522.523H1257.29C1260.59 522.523 1260.79 522.323 1261.09 518.823C1261.69 511.323 1248.09 467.923 1234.79 435.123C1206.59 365.523 1164.89 298.723 1111.69 238.023C1096.49 220.623 1059.99 183.623 1045.29 170.623C1023.99 151.823 974.593 113.723 961.593 106.123C958.393 104.223 952.193 100.323 947.793 97.4227C916.393 76.9228 864.093 50.9227 822.293 34.8227C810.193 30.2227 777.293 20.2227 756.793 15.0227C716.493 4.72273 657.593 -2.67725 644.593 0.922745C638.493 2.62274 638.693 5.82274 645.093 11.7227C647.693 14.2227 677.893 39.2227 712.293 67.3227C794.893 134.823 812.293 149.323 815.293 152.523L817.793 155.123L815.293 154.223C813.893 153.623 810.193 152.023 806.993 150.623C798.993 147.023 762.893 134.823 744.793 129.523C719.793 122.323 669.293 112.123 645.593 109.523C638.093 108.723 635.793 107.223 636.793 104.123C637.893 100.723 643.893 94.4227 650.893 89.4227C659.393 83.4227 659.793 82.8227 657.893 79.3227C657.093 77.8227 652.993 72.7227 648.793 68.1227C642.993 61.6227 640.093 57.3227 636.493 49.8227C633.593 43.6227 631.393 40.0227 630.493 40.2227C628.893 40.5227 627.593 42.8227 622.993 53.0227C620.493 58.5227 617.293 63.1227 610.893 70.3227C605.593 76.2227 602.293 80.7227 602.493 81.8227C602.693 82.7227 606.793 86.5227 611.693 90.2227C623.593 99.0227 627.993 106.423 622.593 108.423C621.693 108.823 615.993 109.723 609.893 110.623C555.993 117.923 502.893 131.523 459.993 149.023C452.993 151.823 446.793 154.023 446.193 153.823C444.593 153.323 453.493 145.323 473.793 128.923C514.293 96.2228 613.993 14.3227 617.493 10.7227C621.593 6.72274 622.193 4.02274 619.593 1.92274C617.293 -0.0772526 592.893 -0.277277 578.293 1.52272ZM634.693 65.5227C636.193 68.5227 639.293 73.0227 641.393 75.4227C643.593 77.8227 645.293 80.2227 645.293 80.7227C645.293 81.2227 643.093 83.2227 640.493 85.2227C637.793 87.2227 634.593 90.1227 633.293 91.7227L630.993 94.5227L623.593 87.4227C619.593 83.5227 616.293 79.9227 616.293 79.4227C616.293 78.9227 617.193 77.9227 618.193 77.3227C619.293 76.6227 622.493 72.4227 625.393 68.0227C628.293 63.6227 630.893 60.0227 631.193 60.0227C631.493 60.0227 633.093 62.5227 634.693 65.5227ZM647.893 120.023C685.593 125.123 707.793 129.523 737.893 138.123C777.793 149.423 808.193 160.823 840.793 177.023C878.293 195.523 913.693 217.723 943.793 241.623C959.493 254.023 959.793 254.323 960.593 258.923C961.393 264.123 960.693 277.823 959.093 286.023C956.593 299.223 943.293 319.023 929.493 330.123C920.193 337.623 906.993 344.523 893.493 349.023C888.393 350.723 867.693 356.323 847.493 361.523C807.893 371.623 790.893 377.123 771.193 386.023C756.893 392.523 745.993 398.823 735.693 406.623C731.793 409.623 727.993 412.023 727.193 412.023C726.193 412.023 725.293 410.123 724.493 406.123C722.893 398.623 718.293 387.323 714.493 381.723C709.193 374.123 702.893 370.723 686.193 366.523C655.093 358.723 650.293 352.623 650.293 320.523V307.423L659.993 301.423C673.993 292.923 683.493 283.123 689.593 271.023C695.793 258.523 698.293 248.523 698.293 235.523C698.293 196.523 668.493 166.123 630.193 166.023C606.693 166.023 580.893 181.823 570.693 202.523C564.993 214.123 562.993 224.323 563.593 237.923C564.193 251.623 565.893 258.523 571.393 270.023C574.893 277.223 577.093 280.023 585.693 288.523C592.293 295.123 598.393 300.023 603.493 303.023L611.193 307.423L611.893 316.023C613.093 331.223 609.693 346.423 603.293 354.223C599.193 359.223 591.993 362.523 576.393 366.523C561.093 370.523 554.693 373.623 549.093 380.023C543.893 385.923 541.593 390.423 537.893 402.423L534.793 412.323L527.793 407.423C506.893 393.023 497.893 388.023 479.093 380.623C462.393 374.023 438.593 367.123 403.693 358.523C369.793 350.123 364.193 348.423 352.793 342.723C325.493 329.123 305.993 306.023 301.793 282.323C299.993 272.323 299.893 256.923 301.593 254.823C302.793 253.123 314.893 243.623 333.293 229.623C395.093 182.723 475.993 146.823 559.293 129.123C570.993 126.623 605.593 120.723 619.793 118.723C626.593 117.823 633.793 118.123 647.893 120.023ZM637.393 176.523C647.193 177.323 653.293 179.523 661.693 185.123C693.893 206.623 698.193 249.023 671.493 280.023C663.093 289.823 648.993 297.923 635.193 301.023C630.193 302.123 629.193 302.023 621.793 299.523C611.593 296.123 601.393 290.823 596.093 286.023C591.193 281.723 591.593 280.023 597.593 280.023C607.493 280.023 631.393 272.323 640.093 266.423C646.993 261.623 655.393 252.423 658.093 246.623C660.793 240.923 663.293 230.923 663.293 225.523C663.293 220.323 658.293 206.023 654.593 200.823C648.993 192.623 641.193 188.823 630.293 188.923C619.593 188.923 608.993 194.723 603.293 203.723C600.693 207.723 600.493 207.823 599.893 205.823C598.793 201.523 599.293 197.523 601.693 192.523C606.393 182.423 618.893 174.523 628.293 175.623C629.693 175.823 633.793 176.223 637.393 176.523ZM590.093 201.923C589.993 208.623 590.393 210.723 592.593 215.223C593.993 218.123 596.793 222.123 598.793 224.023C602.093 227.223 602.893 227.523 608.093 227.523C612.393 227.423 614.993 226.823 618.693 224.723C623.993 221.823 625.693 221.823 622.893 224.923C619.393 228.723 609.793 233.023 604.693 233.023C595.793 232.923 590.693 230.223 585.193 222.623C582.693 219.223 582.293 217.823 582.293 212.123C582.393 208.523 582.993 203.823 583.693 201.723C585.093 197.823 587.893 194.023 589.493 194.023C589.893 194.023 590.193 197.623 590.093 201.923ZM635.993 199.523C641.593 201.223 648.893 207.623 649.893 211.723C651.793 219.123 646.093 233.223 637.793 241.423C628.293 250.923 615.093 255.423 603.693 253.123C595.893 251.623 586.493 247.123 582.593 243.023C579.193 239.623 575.493 231.523 576.693 230.323C576.993 229.923 579.193 231.523 581.593 233.823C587.193 239.223 593.793 242.023 602.793 242.723C609.493 243.223 610.693 243.023 616.893 240.123C625.993 235.823 629.693 232.923 632.993 227.223C637.693 219.223 636.093 207.723 629.393 201.623C625.193 197.823 627.493 197.023 635.993 199.523ZM616.893 213.523C615.993 214.923 614.793 215.823 614.293 215.523C612.793 214.623 613.093 212.923 614.993 210.823C617.493 208.023 618.993 210.223 616.893 213.523ZM592.093 260.123C605.493 264.323 618.393 263.623 631.993 258.023L636.793 256.023L633.393 259.023C622.793 268.123 590.693 273.423 582.593 267.423C578.893 264.623 575.293 258.323 575.293 254.223V251.023L580.393 254.523C583.193 256.423 588.493 258.923 592.093 260.123ZM287.193 275.223C279.993 303.323 280.093 346.823 287.393 389.823C289.493 402.623 298.293 430.023 304.193 442.323C309.193 452.723 324.493 475.823 331.293 483.323C334.293 486.523 336.293 489.623 335.993 490.423C335.693 491.223 330.393 495.323 324.093 499.623C308.093 510.723 300.293 516.923 287.893 529.023C277.193 539.423 259.793 559.323 254.693 566.923C251.893 571.223 252.093 574.323 255.293 576.023C257.493 577.223 261.593 573.223 281.193 550.323C297.393 531.423 314.293 517.023 336.193 503.623L345.493 497.823L351.193 501.523C367.393 512.023 396.493 521.223 431.193 526.923C438.093 528.023 441.293 530.223 443.993 535.523C446.093 539.523 456.693 550.523 462.093 554.223C464.493 555.823 471.193 559.223 477.093 561.723C489.793 567.023 496.593 568.023 519.593 568.023H535.493L535.093 576.823L534.793 585.623L525.693 601.523C511.093 627.123 498.793 650.023 479.093 688.523C458.993 727.723 450.693 742.023 442.493 751.023C433.593 760.923 431.893 761.523 401.893 764.523C379.893 766.823 374.393 769.123 349.193 786.223C335.593 795.423 332.993 797.923 333.493 801.123C333.893 804.123 339.193 805.323 349.393 804.723C355.593 804.323 358.793 803.423 366.193 800.123C371.193 797.823 375.593 796.023 375.893 796.023C376.193 796.023 375.293 798.023 373.893 800.423C371.693 804.223 371.493 805.223 372.393 807.923C372.993 809.723 374.193 811.023 375.093 811.023C376.093 811.023 379.793 807.223 383.493 802.623C393.193 790.423 402.093 785.023 412.493 785.023C419.693 785.023 424.793 783.023 431.693 777.423C439.893 771.023 447.193 767.323 455.893 765.523C467.193 763.123 473.093 757.523 494.993 728.023C506.893 712.023 523.893 686.923 531.093 674.923C534.793 668.823 537.193 665.923 539.493 664.823C541.293 663.923 548.393 660.523 555.293 657.223C579.293 645.723 598.993 628.023 612.993 605.323C616.093 600.223 616.493 599.923 615.893 602.723C614.893 608.323 608.293 624.923 599.093 645.023C582.593 680.923 576.293 699.123 571.393 725.523C567.293 747.723 566.793 754.723 566.893 788.023C566.993 834.723 568.193 844.423 584.293 927.523C589.193 952.823 595.493 985.623 598.193 1000.52C600.993 1015.32 604.993 1036.32 607.193 1047.02C609.393 1057.72 611.293 1068.32 611.493 1070.52L611.793 1074.52L607.793 1074.22C599.193 1073.62 565.893 1067.72 549.293 1063.82C475.293 1046.72 404.793 1016.32 348.093 976.923C316.693 955.023 297.493 939.023 270.193 912.023C221.593 863.923 180.593 797.923 159.493 734.023C138.493 670.623 132.493 606.423 141.393 541.123C148.993 486.223 166.293 435.423 194.593 385.023C208.993 359.323 226.493 334.523 247.093 310.223C259.893 295.123 286.093 268.023 287.793 268.023C288.793 268.023 288.693 269.723 287.193 275.223ZM987.393 280.723C1013.19 306.923 1026.79 323.023 1043.89 347.523C1057.59 367.023 1066.09 381.823 1080.39 410.523C1091.79 433.523 1094.19 439.423 1101.69 462.023C1116.59 506.823 1122.59 540.723 1123.99 587.523C1125.29 632.023 1119.99 672.323 1106.69 719.823C1093.29 767.523 1061.59 828.623 1028.49 870.023C1002.19 903.123 963.993 940.123 930.793 964.823C921.293 971.923 887.093 995.023 886.093 995.023C885.793 995.023 881.793 997.323 877.193 1000.12C865.893 1007.02 823.993 1027.52 807.293 1034.32C776.693 1046.92 741.393 1057.92 707.293 1065.42C696.893 1067.72 654.593 1075.02 651.593 1075.02C649.493 1075.02 650.093 1068.22 653.893 1050.32C655.793 1041.12 658.893 1024.92 660.793 1014.52C662.693 1004.02 665.993 986.323 668.193 975.023C690.693 860.923 692.393 850.623 694.293 818.023C696.093 785.923 695.293 756.123 692.193 737.523C690.793 728.623 686.493 710.023 683.093 697.623C679.093 682.923 675.493 673.723 661.993 643.923C648.293 613.623 644.493 603.023 647.093 603.023C647.493 603.023 649.093 605.323 650.593 608.023C657.193 619.723 673.393 637.023 686.793 646.523C694.493 652.023 712.193 661.323 719.193 663.623C724.293 665.223 724.793 665.823 730.093 673.923C755.093 712.823 777.793 744.423 788.593 755.423C795.093 761.923 797.993 763.423 813.193 768.123C817.493 769.423 822.293 771.723 824.693 773.723C834.093 781.223 838.893 784.023 844.793 785.123C848.093 785.823 850.993 786.523 851.193 786.623C852.493 787.723 827.593 811.323 826.193 810.423C825.693 810.123 823.893 810.123 822.293 810.523C820.093 811.023 818.293 812.623 815.893 816.523C811.893 822.623 809.593 824.523 795.293 833.323C789.493 836.823 778.693 843.423 771.293 848.023C748.193 862.223 725.793 877.723 717.993 885.023C696.693 904.923 689.693 920.523 696.993 931.723C703.193 941.323 712.493 940.123 728.793 927.523C739.093 919.523 745.893 912.723 788.293 868.023C826.093 828.223 826.793 827.523 830.293 827.823C837.493 828.423 841.893 824.423 837.793 821.023C836.993 820.323 836.293 818.923 836.293 817.823C836.293 815.523 860.293 791.423 863.593 790.423C865.393 789.823 867.393 791.423 875.893 800.423C882.993 808.023 886.393 810.923 887.493 810.523C890.993 809.223 890.793 805.023 887.093 799.723C884.293 795.723 885.393 795.323 890.893 798.423C900.193 803.623 915.793 806.323 924.093 804.123C927.793 803.123 928.293 802.623 928.293 800.123C928.293 796.923 926.493 795.123 916.293 788.323C912.093 785.523 908.093 782.523 907.393 781.623C905.893 779.823 906.593 779.423 922.293 773.423C946.693 764.023 989.093 742.623 1001.99 733.123C1017.99 721.323 1030.29 707.523 1036.69 694.023C1039.79 687.623 1039.79 687.323 1039.79 672.023C1039.79 657.523 1039.59 656.223 1037.29 651.523C1035.59 648.123 1033.19 645.423 1029.79 643.023C1027.09 641.123 1022.99 637.523 1020.79 635.123C1010.29 623.623 1005.19 619.223 998.893 616.123C978.593 606.123 957.193 611.423 933.493 632.123C907.893 654.423 885.993 688.823 863.393 742.323C859.493 751.523 856.293 759.523 856.293 760.023C856.293 760.523 855.293 761.623 854.093 762.423C852.293 763.523 849.993 763.623 843.493 762.923C833.393 761.923 827.193 759.323 821.493 753.723C811.693 744.323 804.993 732.923 777.693 679.723C755.893 637.423 743.493 614.323 733.093 597.223C725.793 585.123 725.393 583.423 727.093 572.123L727.793 567.723L747.793 567.523C770.693 567.423 774.393 566.723 788.993 559.523C801.293 553.423 811.193 545.423 816.993 536.723C822.193 528.923 823.993 527.823 835.293 526.023C845.393 524.423 869.693 518.523 881.193 514.823C893.193 511.023 904.193 505.923 910.393 501.523C913.093 499.623 915.493 498.023 915.793 498.023C916.993 498.023 938.393 511.723 945.093 516.823C959.493 527.623 973.493 541.623 992.093 563.723C1002.09 575.723 1004.49 577.423 1007.09 574.823C1010.39 571.523 1007.89 567.223 992.993 549.723C978.193 532.323 960.593 515.923 944.693 504.623C937.093 499.223 929.393 493.523 927.693 491.923L924.693 489.023L929.793 483.723C941.593 471.523 959.693 440.023 967.193 418.623C970.993 407.823 974.493 391.123 977.493 369.023C981.293 340.523 980.193 300.623 974.793 277.223C973.093 270.123 972.993 268.023 974.093 268.023C974.493 268.023 980.493 273.723 987.393 280.723ZM297.693 301.723C307.793 322.523 325.893 340.723 346.793 351.223C357.293 356.523 368.493 360.023 404.793 369.023C465.893 384.123 497.793 396.923 523.393 416.323L532.793 423.523L533.393 430.023C534.293 438.423 534.393 464.923 533.693 467.623L533.093 469.823L525.993 467.923C506.093 462.723 490.693 460.923 466.293 460.923C440.693 460.923 420.893 463.123 398.593 468.323L392.393 469.823L385.993 463.023C372.793 449.123 355.993 422.723 348.793 404.723C346.793 399.623 344.693 394.923 344.093 394.223C342.593 392.423 337.393 392.723 336.593 394.623C333.893 401.723 356.293 443.623 374.293 464.923C377.693 468.923 380.093 472.623 379.593 473.023C379.193 473.423 372.293 476.323 364.293 479.323C356.293 482.323 349.093 485.123 348.193 485.423C345.593 486.523 327.793 464.223 318.493 448.323C307.093 428.823 298.893 403.823 294.793 376.523C292.793 362.823 290.993 325.423 291.793 314.023C292.693 301.623 293.393 296.023 294.193 296.023C294.593 296.023 296.093 298.623 297.693 301.723ZM969.993 323.023C971.093 368.723 963.393 408.023 946.893 440.823C937.093 460.423 915.493 488.023 912.193 485.423C911.393 484.723 905.193 482.123 898.293 479.523C881.693 473.223 881.993 473.423 883.393 470.723C884.093 469.523 887.393 464.923 890.793 460.523C912.993 432.023 930.793 395.123 923.793 392.423C919.793 390.823 917.493 392.923 914.293 400.723C904.093 425.423 887.093 452.223 873.493 465.423L869.493 469.223L859.093 467.123C844.393 463.923 831.293 462.323 811.793 461.023C786.493 459.323 763.293 461.223 740.493 466.723C730.693 469.123 729.093 469.223 728.193 468.023C726.793 465.923 727.693 428.523 729.293 424.223C731.693 417.723 763.293 399.023 789.693 388.423C804.093 382.523 824.193 376.723 862.793 367.123C895.993 358.923 903.793 356.423 915.693 350.423C935.793 340.123 952.993 323.323 962.893 304.423C964.893 300.623 966.693 297.123 966.993 296.623C968.593 294.123 969.593 302.523 969.993 323.023ZM640.293 322.723C640.393 340.623 643.793 352.923 651.093 361.223C655.393 366.023 666.593 371.323 679.293 374.523C696.993 378.923 698.593 379.623 704.293 385.523C717.593 399.623 718.593 409.923 717.193 516.623L716.293 585.823L729.693 609.623C746.593 639.923 758.393 662.323 776.093 697.523C792.093 729.323 797.193 738.423 804.293 748.223C806.993 752.023 809.293 755.323 809.293 755.623C809.293 756.023 807.893 756.023 806.193 755.623C800.393 754.523 794.293 748.823 782.593 733.523C769.293 716.223 738.393 670.323 732.193 658.523C729.893 654.123 724.393 644.223 719.993 636.623C706.893 613.923 698.493 594.523 694.893 578.623C692.593 568.823 689.293 536.223 688.593 517.523C688.093 500.223 689.593 461.223 691.193 453.123C692.193 448.223 691.193 444.323 688.593 442.323C686.193 440.523 682.493 442.823 675.293 450.723C659.593 468.023 648.493 490.223 638.393 524.023L636.493 530.523L636.393 494.023C636.393 453.523 636.993 445.523 640.893 437.823C644.293 431.123 652.193 423.423 660.093 419.223C663.493 417.423 666.293 415.523 666.293 415.123C666.293 414.723 663.093 412.623 659.193 410.423C649.893 405.323 643.093 397.723 636.393 385.023C633.493 379.523 630.793 375.023 630.393 375.023C629.893 375.023 628.493 377.523 627.193 380.623C621.893 393.923 611.393 406.423 601.393 411.523C598.593 412.923 596.293 414.423 596.293 414.923C596.293 415.323 599.793 418.023 604.093 420.823C612.793 426.423 617.393 431.423 622.693 441.223L626.293 447.723V487.623C626.293 509.623 625.893 528.123 625.393 528.923C624.693 530.023 623.993 528.723 622.793 524.423C618.593 508.823 614.393 497.623 608.193 485.123C599.693 468.223 592.893 457.723 584.393 448.923C577.893 442.123 574.393 440.423 572.593 443.223C572.193 443.923 571.993 462.923 572.093 485.523C572.693 557.123 569.393 579.523 553.393 613.423C542.493 636.523 528.993 659.823 508.693 690.823C482.993 729.923 465.793 751.723 457.093 756.123C450.393 759.523 450.593 759.023 459.693 744.923C468.793 730.823 477.293 715.023 494.593 680.323C507.293 654.823 515.093 640.123 535.693 603.023L544.793 586.523V499.523C544.793 403.423 544.593 407.423 551.193 394.123C556.993 382.723 562.393 379.323 584.093 373.623C599.193 369.523 603.693 367.523 609.893 361.823C618.193 354.123 621.293 343.723 621.293 322.723V311.023H640.293V322.723ZM592.793 476.123C601.793 491.923 612.393 516.323 610.993 517.623C610.693 517.923 607.093 513.723 602.993 508.323C598.893 502.923 592.993 496.123 589.793 493.223C583.093 487.023 582.393 484.923 582.393 470.023V460.523L584.793 463.223C586.093 464.723 589.693 470.523 592.793 476.123ZM679.793 469.723C678.593 485.123 677.793 487.923 673.493 491.623C669.993 494.523 666.293 498.923 654.393 513.923C652.493 516.323 650.693 517.823 650.493 517.223C649.993 515.623 658.793 494.723 665.493 482.023C671.393 470.523 677.893 461.023 679.593 461.023C680.193 461.023 680.193 464.623 679.793 469.723ZM489.793 471.123C504.393 472.423 513.993 474.123 525.593 477.623L534.293 480.323V523.323L519.093 522.723C483.693 521.323 451.993 513.223 429.093 499.723C417.893 493.123 403.693 482.723 402.293 480.023C400.893 477.423 402.693 476.623 414.293 474.623C440.193 470.423 467.293 469.123 489.793 471.123ZM814.793 471.023C837.393 472.623 859.293 476.323 859.293 478.623C859.293 482.023 838.693 497.323 824.393 504.523C815.693 508.823 796.793 515.323 786.293 517.523C768.193 521.323 737.793 524.623 730.693 523.523L726.293 522.923V515.723C726.293 511.723 726.593 502.123 726.993 494.223L727.593 480.023L735.193 477.623C755.593 471.223 783.493 468.923 814.793 471.023ZM390.293 482.623C391.693 483.623 394.793 486.223 397.293 488.623C405.393 496.323 420.293 506.723 431.593 512.623C437.793 515.823 442.093 518.623 441.193 518.823C439.193 519.223 403.893 511.723 392.993 508.523C377.293 504.023 358.793 495.923 358.793 493.623C358.793 492.023 364.893 488.923 376.093 484.923C381.993 482.823 386.993 481.123 387.293 481.123C387.593 481.023 388.993 481.723 390.293 482.623ZM890.293 486.923C903.793 492.223 904.093 492.423 902.293 494.523C897.193 500.623 863.493 511.423 831.993 517.023C819.193 519.323 815.493 519.223 821.793 516.623C833.293 512.023 852.093 499.523 863.693 488.923C871.293 482.123 871.793 481.823 875.693 482.223C877.993 482.523 884.493 484.623 890.293 486.923ZM592.193 510.523C595.393 514.523 600.093 521.123 602.593 525.123C607.593 533.123 612.693 544.023 611.493 544.023C611.093 544.023 606.493 540.223 601.293 535.523C596.093 530.823 589.893 525.723 587.593 524.223L583.293 521.523V512.423C583.293 499.523 583.493 499.523 592.193 510.523ZM678.293 512.423V521.723L673.093 525.223C670.193 527.123 663.993 532.123 659.493 536.323C654.893 540.623 650.693 544.023 650.093 544.023C648.793 544.023 656.593 529.523 663.893 518.523C670.593 508.223 676.093 501.823 677.393 502.623C677.893 502.923 678.293 507.323 678.293 512.423ZM806.393 536.823C802.893 543.423 786.393 553.823 772.793 557.923C764.293 560.523 747.493 561.923 736.793 560.923C732.393 560.523 728.193 560.123 727.593 560.123C726.593 560.023 726.293 557.023 726.293 548.523V537.023H739.593C759.193 536.923 799.393 535.123 802.793 534.123C806.393 533.123 807.893 534.123 806.393 536.823ZM482.293 536.023C492.993 536.723 509.093 537.023 518.093 536.823L534.293 536.423L534.493 543.523C534.893 555.223 534.493 558.423 532.593 559.723C530.293 561.523 507.093 561.323 497.293 559.623C487.993 557.923 477.893 554.123 470.193 549.423C462.993 545.023 453.093 536.223 453.893 534.823C454.293 534.323 456.393 534.123 458.693 534.323C460.893 534.623 471.593 535.423 482.293 536.023ZM680.293 544.923C680.893 549.023 681.193 552.423 681.093 552.523C680.893 552.623 677.493 554.823 673.593 557.423C665.793 562.523 657.793 568.623 648.893 576.423C645.793 579.123 642.993 581.023 642.593 580.723C640.993 579.023 655.493 556.823 664.593 547.123C669.693 541.823 677.493 535.823 678.393 536.723C678.893 537.223 679.693 540.923 680.293 544.923ZM589.993 540.923C597.093 546.623 604.593 554.923 609.593 562.623C615.893 572.423 621.593 583.023 620.593 583.023C620.193 582.923 615.293 578.923 609.793 573.923C604.293 568.923 595.393 561.923 590.093 558.423L580.393 552.023L580.893 546.723C581.993 535.323 582.593 535.023 589.993 540.923ZM117.693 543.623C118.593 544.423 119.993 547.723 120.793 550.823C121.693 553.923 123.493 560.123 124.793 564.523C127.593 573.723 128.293 578.823 126.793 579.123C125.793 579.423 110.293 557.223 106.593 550.323C104.593 546.523 105.193 545.523 110.893 543.523C115.893 541.723 115.893 541.723 117.693 543.623ZM1151.29 544.023C1153.39 545.123 1155.49 546.423 1155.79 547.023C1156.49 548.223 1156.29 548.623 1143.79 567.123C1133.09 583.023 1132.49 582.523 1137.79 562.523C1143.49 540.623 1143.79 540.223 1151.29 544.023ZM98.9932 558.223C100.093 559.523 102.693 563.223 104.893 566.523C106.993 569.823 110.293 574.623 112.193 577.223C113.993 579.723 115.393 582.323 115.093 583.023C114.793 584.123 91.2932 572.923 89.3932 570.723C87.8932 568.923 93.8932 556.023 96.1932 556.023C96.5932 556.023 97.8932 557.023 98.9932 558.223ZM1170.39 563.523C1171.99 566.223 1173.29 569.123 1173.29 569.823C1173.29 571.223 1146.69 584.723 1145.69 583.823C1145.19 583.223 1159.09 562.223 1162.59 558.323C1165.09 555.523 1166.29 556.323 1170.39 563.523ZM591.893 575.823C602.793 583.923 610.293 590.923 610.293 592.823C610.293 598.423 598.793 616.023 586.893 628.723C580.893 632.923 574.223 639.325 565.793 644.023C558.074 648.324 547.749 654.1 546.793 652.523C548.793 648.523 548.593 650.523 552.493 643.423C565.193 620.223 573.793 598.523 577.293 580.823C578.393 575.123 579.593 569.923 579.793 569.223C580.393 567.523 581.893 568.323 591.893 575.823ZM681.693 568.923C682.093 569.423 682.993 573.823 683.893 578.723C686.393 593.423 691.993 608.123 704.493 632.923C710.993 645.823 715.593 654.123 715.293 654.423C714.493 655.323 701.193 648.823 694.593 644.023C686.793 639.023 671.993 626.923 664.893 618.123C661.993 614.523 657.593 607.723 655.293 603.223C651.093 594.923 650.993 594.823 652.593 591.523C654.293 588.023 666.093 577.323 674.793 571.423C680.093 567.823 680.893 567.523 681.693 568.923ZM100.193 592.323C109.993 597.223 112.693 599.023 112.993 600.823C113.193 602.323 110.793 606.823 105.593 614.523C101.393 620.823 97.5932 626.023 97.0932 626.023C96.5932 626.023 94.3932 623.223 92.1932 619.823L88.1932 613.623L101.293 608.723C135.693 597.723 116.193 596.323 112.993 597.523C109.193 598.923 86.5932 605.523 85.2932 607.023C83.4932 599.023 83.7932 586.023 86.5932 586.023C87.2932 586.023 93.3932 588.823 100.193 592.323ZM1176.99 588.723C1177.99 592.323 1177.99 605.723 1176.99 609.323C1176.39 611.623 1175.89 611.923 1173.79 611.423C1171.79 610.923 1172 609.8 1172.5 611C1178.4 613.6 1168.69 624.523 1166.29 626.423C1164.39 628.123 1162.19 625.223 1155.39 614.223C1148.19 602.623 1147.29 600.423 1149.59 601.323C1161.29 607.023 1170.79 610.523 1176.29 613.523C1183.29 617.341 1180.99 607.64 1179.59 606.623C1178.09 605.523 1152.79 596.923 1153.39 595.523C1161.19 591.423 1173.59 586.123 1174.99 586.023C1175.69 586.023 1176.59 587.223 1176.99 588.723ZM1147.79 621.323C1151.79 627.823 1154.99 633.723 1154.69 634.423C1153.99 636.123 1149.89 638.023 1146.89 638.023C1143.59 638.023 1142.39 636.223 1141.19 629.423C1140.59 626.123 1139.29 620.223 1138.19 616.123C1137.19 612.023 1136.29 607.723 1136.29 606.623C1136.29 604.623 1136.49 604.623 1138.29 607.023C1139.49 608.423 1143.69 614.823 1147.79 621.323ZM124.893 608.723C124.593 609.723 123.193 615.923 121.793 622.523C118.793 636.323 117.193 639.423 113.993 638.423C110.793 637.523 106.293 635.123 106.293 634.423C106.293 633.423 113.193 622.223 118.593 614.223C123.293 607.323 125.993 605.023 124.893 608.723ZM628.093 609.523C629.193 610.923 630.393 612.023 630.793 612.023C631.193 612.023 632.393 610.923 633.493 609.523C634.593 608.123 635.793 607.023 636.293 607.023C636.693 607.023 638.893 612.523 641.093 619.223C643.293 626.023 647.693 637.123 650.793 644.023C669.593 685.323 672.393 692.723 677.193 712.223C684.193 740.523 684.793 746.723 684.793 788.023C684.793 828.623 684.093 837.623 678.393 871.023C675.793 885.923 648.793 1026.72 639.593 1073.52L635.793 1092.52L635.293 1034.52C634.793 983.023 634.493 975.923 632.993 971.223C628.393 957.423 627.493 967.123 626.393 1046.52L625.793 1092.52L617.093 1048.52C612.193 1024.32 606.093 992.323 603.293 977.523C600.593 962.623 595.993 938.823 593.193 924.523C583.093 872.423 579.393 851.223 578.193 837.023C576.393 817.423 576.393 761.023 578.093 745.523C581.293 717.123 591.393 685.523 609.993 646.023C615.393 634.723 620.293 622.023 622.793 612.723C623.693 609.623 624.793 607.023 625.293 607.023C625.793 607.023 626.993 608.123 628.093 609.523ZM993.393 625.723C999.493 628.523 1007.29 634.323 1007.29 635.923C1007.29 636.323 1004.79 637.223 1001.69 637.923C986.393 641.423 968.393 653.423 940.793 678.623C917.593 699.923 901.093 718.623 868.493 760.523L866.193 763.523L866.693 760.923C868.093 754.623 886.593 715.223 896.093 698.523C914.593 666.023 937.793 639.023 956.593 628.223C968.893 621.123 981.793 620.223 993.393 625.723ZM1010.99 650.223C1009.59 662.023 998.393 678.623 982.293 692.823C973.193 700.823 929.393 734.623 908.993 749.123C895.493 758.923 885.593 764.523 879.493 765.823C877.193 766.423 875.293 766.623 875.293 766.523C875.293 765.823 891.193 745.823 903.193 731.523C918.693 713.023 951.193 680.323 965.293 669.023C984.993 653.323 999.493 645.123 1007.69 645.023H1011.59L1010.99 650.223ZM1028.79 656.623C1030.39 659.823 1030.79 662.523 1030.79 671.523C1030.79 681.023 1030.49 683.323 1028.29 688.523C1019.69 708.823 1001.39 725.023 967.693 742.223C935.093 758.823 893.293 775.723 893.293 772.223C893.293 771.723 898.993 767.423 906.093 762.723C931.593 745.723 984.593 704.623 997.893 691.523C1008.89 680.723 1020.29 661.923 1020.29 654.723C1020.29 648.623 1025.29 649.723 1028.79 656.623ZM419.893 773.523C418.793 774.323 416.293 775.223 414.393 775.523C412.393 775.823 408.593 776.523 405.793 777.123C403.093 777.623 396.993 778.723 392.293 779.623C381.893 781.423 380.193 782.123 368.293 788.623C363.093 791.523 357.693 794.223 356.293 794.623C353.993 795.223 353.893 795.123 355.293 793.523C359.493 788.423 380.093 777.923 390.793 775.523C396.793 774.123 410.493 772.523 418.793 772.223C421.593 772.123 421.693 772.123 419.893 773.523ZM863.493 774.523C875.493 776.323 884.993 779.923 896.993 787.423C913.593 797.723 909.693 797.623 890.993 787.323C880.893 781.723 878.093 780.623 871.993 779.923C867.993 779.423 862.593 778.423 859.893 777.523C857.193 776.723 852.893 776.023 850.393 775.923C844.493 775.823 841.093 774.823 840.493 773.123C839.993 771.723 845.793 772.023 863.493 774.523ZM779.693 862.723C736.193 908.523 726.393 918.223 716.993 924.523C705.193 932.523 699.893 926.823 706.493 913.223C710.993 903.923 734.293 883.023 756.393 868.723C770.793 859.323 794.593 845.023 795.093 845.523C795.293 845.723 788.393 853.423 779.693 862.723Z" fill="#D4BB85"/>
</svg>
