<svg width="300" height="300" viewBox="0 0 300 300" fill="none" xmlns="http://www.w3.org/2000/svg">
<g clip-path="url(#clip0_1_4)">
<path d="M150 298C231.738 298 298 231.738 298 150C298 68.2619 231.738 2 150 2C68.2619 2 2 68.2619 2 150C2 231.738 68.2619 298 150 298Z" fill="#6B7F6E" stroke="#D4BB85" stroke-width="2"/>
<path d="M141.258 48.2694C130.79 49.5611 120.287 52.463 110.579 56.7627C107.555 58.1075 101.048 61.3633 98.3423 62.885C94.8057 64.9021 87.9802 69.538 84.3021 72.4222C74.5412 80.1193 66.973 87.6925 60.006 96.7343C58.1846 99.1053 52.0487 108.2 51.3944 109.474C51.1999 109.863 50.6694 110.784 50.2451 111.509C49.0957 113.402 45.3469 121.029 43.95 124.337C42.553 127.576 40.2012 134.512 39.4055 137.661C38.822 139.962 38.8573 140.333 39.5823 140.722C40.1128 141.006 40.3781 140.457 41.5274 136.529C45.7536 122.267 52.7207 108.89 62.1986 96.8404C69.0949 88.0817 75.5845 81.5879 85.0979 73.9793C92.4539 68.0871 103.612 61.4694 112.789 57.5413C116.078 56.1434 124.407 53.3831 128.155 52.4453C134.008 50.9767 145.078 49.2249 145.379 49.7204C145.538 49.9681 144.707 50.7113 140.286 54.3032C138.146 56.0372 133.726 59.6469 130.472 62.3364C127.218 65.0083 122.603 68.7949 120.216 70.7413C117.829 72.6699 115.017 74.9879 113.939 75.8726C111.092 78.226 110.013 79.0222 108.634 79.7654C100.942 83.9589 93.2319 89.6388 86.8131 95.8672C78.5552 103.9 72.1894 113.155 67.5919 123.877C65.5053 128.708 62.959 137.767 62.4816 142.067C62.2694 143.943 61.9334 144.014 61.4206 142.297L61.0846 141.218L59.7407 141.289C57.9901 141.395 56.6109 142.103 55.1432 143.66C53.145 145.801 52.2255 148.437 52.2609 151.958C52.314 157.426 54.6304 161.177 58.5913 162.239C60.3419 162.716 61.0493 162.54 61.5621 161.531L61.8096 161.018L61.9334 162.062C62.0041 162.628 62.3047 164.521 62.5877 166.255C65.3108 182.516 73.0382 197.645 84.8503 209.801C95.3362 220.595 107.148 228.256 121.719 233.759C128.58 236.343 132.965 237.493 142.196 239.191C144.618 239.634 146.846 240.112 147.164 240.235C147.836 240.519 147.695 239.935 148.508 246.039C149.057 250.18 149.269 251.117 149.782 251.666C150.153 252.055 150.4 252.091 151.055 251.843C151.674 251.613 151.921 250.675 152.664 245.473C153.389 240.572 153.407 240.43 153.707 240.165C153.831 240.076 154.963 239.828 156.218 239.616C168.596 237.634 178.357 234.679 188.1 229.973C199.771 224.328 208.577 217.958 216.852 209.2C221.415 204.369 225.057 199.556 228.647 193.611C229.885 191.558 232.891 185.471 233.793 183.189C236.021 177.509 237.807 170.927 238.691 165.07C238.991 163.123 239.292 161.389 239.345 161.248C239.398 161.071 239.522 161.212 239.699 161.655C240.035 162.486 240.477 162.61 242.033 162.327C243.766 162.026 244.897 161.389 246.029 160.133C247.956 158.01 248.788 155.533 248.823 151.87C248.841 149.552 248.452 147.853 247.479 145.854C246.719 144.297 244.968 142.545 243.43 141.784C241.113 140.652 240.052 140.917 239.486 142.757C239.31 143.288 239.115 143.73 239.044 143.73C238.991 143.73 238.708 142.51 238.425 141.023C236.922 132.778 234.942 126.744 231.405 119.631C228.859 114.464 227.197 111.598 224.757 108.165C216.959 97.1943 206.756 87.9755 194.66 81.004C190.434 78.5622 190.311 78.4737 182.017 71.6437C178.233 68.5295 172.84 64.0882 168.932 60.9032C160.727 54.2147 156.342 50.5874 155.935 50.1981L155.493 49.7735H156.2C157.332 49.7735 160.603 50.1096 163.274 50.4989C177.95 52.6399 193.741 58.8684 207.569 67.9632C213.015 71.5552 217.949 75.3241 222.422 79.3407C224.933 81.5702 230.38 86.8785 231.777 88.4179C246.029 104.13 254.87 119.755 260.211 138.688L260.706 140.457H261.325C261.908 140.457 261.944 140.422 261.997 139.802C262.103 138.475 259.698 130.796 257.346 124.992C252.359 112.677 244.986 100.857 235.579 90.1166C232.891 87.0378 226.436 80.4908 223.837 78.1906C220.071 74.864 211.335 68.1225 209.037 66.7777C208.471 66.4415 207.374 65.7515 206.596 65.2383C201.044 61.611 191.796 57.0104 184.404 54.1617C182.265 53.3477 176.447 51.5783 172.822 50.6582C165.696 48.8357 155.281 47.5263 152.982 48.1633C151.903 48.4641 151.939 49.0303 153.071 50.0743C153.53 50.5166 158.871 54.9402 164.953 59.9123C179.559 71.856 182.636 74.4217 183.167 74.9879L183.609 75.448L183.167 75.2887C182.919 75.1825 182.265 74.8994 181.699 74.6517C180.284 74.0147 173.901 71.856 170.7 70.9182C166.28 69.6442 157.35 67.8394 153.159 67.3793C151.833 67.2378 151.426 66.9724 151.603 66.4238C151.797 65.8222 152.858 64.7075 154.096 63.8228C155.599 62.7611 155.67 62.6549 155.334 62.0356C155.192 61.7702 154.467 60.8678 153.725 60.0539C152.699 58.9037 152.186 58.1429 151.55 56.8158C151.037 55.7188 150.648 55.0818 150.489 55.1172C150.206 55.1702 149.976 55.5772 149.163 57.382C148.721 58.3552 148.155 59.1692 147.023 60.4431C146.086 61.4871 145.502 62.2834 145.538 62.478C145.573 62.6372 146.298 63.3096 147.164 63.9643C149.269 65.5214 150.047 66.8308 149.092 67.1847C148.933 67.2555 147.925 67.4147 146.846 67.574C137.315 68.8657 127.926 71.2721 120.34 74.3686C119.102 74.864 118.006 75.2533 117.899 75.2179C117.617 75.1295 119.19 73.7139 122.78 70.812C129.941 65.026 147.571 50.5343 148.19 49.8973C148.915 49.1895 149.021 48.7118 148.561 48.3402C148.155 47.9863 143.84 47.9509 141.258 48.2694ZM151.232 59.5938C151.497 60.1246 152.045 60.9209 152.416 61.3456C152.805 61.7702 153.106 62.1949 153.106 62.2834C153.106 62.3718 152.717 62.7257 152.257 63.0796C151.78 63.4335 151.214 63.9466 150.984 64.2297L150.577 64.7252L149.269 63.4689C148.561 62.7788 147.978 62.1418 147.978 62.0533C147.978 61.9649 148.137 61.7879 148.314 61.6818C148.508 61.5579 149.074 60.8147 149.587 60.0362C150.1 59.2576 150.56 58.6206 150.613 58.6206C150.666 58.6206 150.949 59.063 151.232 59.5938ZM153.566 69.2372C160.232 70.1397 164.158 70.9182 169.48 72.4399C176.536 74.4394 181.911 76.4565 187.676 79.323C194.307 82.5965 200.567 86.5246 205.889 90.7536C208.665 92.9477 208.718 93.0008 208.86 93.8147C209.001 94.7348 208.877 97.1589 208.595 98.6099C208.152 100.946 205.801 104.449 203.36 106.413C201.716 107.74 199.382 108.961 196.995 109.757C196.093 110.058 192.432 111.049 188.861 111.969C181.858 113.756 178.852 114.729 175.369 116.304C172.84 117.454 170.913 118.569 169.091 119.949C168.402 120.48 167.73 120.905 167.588 120.905C167.411 120.905 167.252 120.569 167.111 119.861C166.828 118.534 166.014 116.534 165.342 115.543C164.405 114.199 163.291 113.597 160.338 112.854C154.839 111.474 153.99 110.394 153.99 104.714V102.396L155.705 101.335C158.181 99.8308 159.861 98.0967 160.939 95.9557C162.036 93.7439 162.478 91.9745 162.478 89.6742C162.478 82.7734 157.208 77.3943 150.436 77.3766C146.28 77.3766 141.718 80.1724 139.915 83.8351C138.907 85.8876 138.553 87.6925 138.659 90.0989C138.765 92.523 139.066 93.7439 140.038 95.7788C140.657 97.0528 141.046 97.5482 142.567 99.0522C143.734 100.22 144.813 101.087 145.714 101.618L147.076 102.396L147.2 103.918C147.412 106.608 146.811 109.297 145.679 110.677C144.954 111.562 143.681 112.146 140.922 112.854C138.217 113.562 137.085 114.11 136.095 115.243C135.176 116.287 134.769 117.083 134.115 119.206L133.566 120.958L132.329 120.091C128.633 117.543 127.041 116.658 123.717 115.349C120.764 114.181 116.556 112.96 110.384 111.438C104.39 109.952 103.4 109.651 101.384 108.643C96.5563 106.236 93.1082 102.149 92.3655 97.9552C92.0472 96.1857 92.0295 93.4608 92.3301 93.0892C92.5423 92.7884 94.6819 91.1074 97.9356 88.6302C108.864 80.3316 123.169 73.9793 137.899 70.8474C139.968 70.4051 146.086 69.3611 148.597 69.0072C149.799 68.848 151.072 68.901 153.566 69.2372ZM151.709 79.2345C153.442 79.3761 154.521 79.7654 156.006 80.7563C161.7 84.5605 162.46 92.063 157.739 97.5482C156.253 99.2822 153.76 100.715 151.32 101.264C150.436 101.459 150.259 101.441 148.95 100.999C147.147 100.397 145.343 99.4592 144.406 98.6099C143.54 97.849 143.61 97.5482 144.671 97.5482C146.422 97.5482 150.648 96.1857 152.186 95.1418C153.407 94.2924 154.892 92.6646 155.369 91.6383C155.847 90.6297 156.289 88.8603 156.289 87.9048C156.289 86.9847 155.405 84.4544 154.75 83.5343C153.76 82.0833 152.381 81.411 150.453 81.4287C148.561 81.4287 146.687 82.4549 145.679 84.0474C145.219 84.7552 145.184 84.7729 145.078 84.419C144.883 83.6581 144.972 82.9504 145.396 82.0656C146.227 80.2785 148.438 78.8807 150.1 79.0753C150.347 79.1107 151.072 79.1815 151.709 79.2345ZM143.345 83.7289C143.327 84.9144 143.398 85.286 143.787 86.0823C144.035 86.5954 144.53 87.3032 144.883 87.6394C145.467 88.2056 145.608 88.2587 146.528 88.2587C147.288 88.241 147.748 88.1348 148.402 87.7632C149.339 87.2501 149.64 87.2501 149.145 87.7986C148.526 88.471 146.829 89.2319 145.927 89.2319C144.353 89.2142 143.451 88.7364 142.479 87.3916C142.036 86.79 141.966 86.5423 141.966 85.5337C141.983 84.8967 142.09 84.0651 142.213 83.6935C142.461 83.0034 142.956 82.3311 143.239 82.3311C143.31 82.3311 143.363 82.9681 143.345 83.7289ZM151.461 83.3043C152.452 83.6051 153.742 84.7375 153.919 85.463C154.255 86.7723 153.247 89.2673 151.78 90.7182C150.1 92.3991 147.766 93.1954 145.75 92.7884C144.371 92.523 142.708 91.7268 142.019 91.0013C141.418 90.3997 140.763 88.9664 140.976 88.7541C141.029 88.6833 141.418 88.9664 141.842 89.3734C142.832 90.3289 143.999 90.8244 145.591 90.9482C146.775 91.0367 146.988 91.0013 148.084 90.4882C149.693 89.7273 150.347 89.2142 150.931 88.2056C151.762 86.79 151.479 84.7552 150.294 83.6758C149.552 83.0034 149.958 82.8619 151.461 83.3043ZM148.084 85.7815C147.925 86.0292 147.713 86.1884 147.624 86.1353C147.359 85.9761 147.412 85.6753 147.748 85.3037C148.19 84.8083 148.455 85.1975 148.084 85.7815ZM143.699 94.027C146.068 94.7702 148.349 94.6463 150.754 93.6554L151.603 93.3016L151.002 93.8324C149.127 95.4426 143.451 96.3804 142.019 95.3187C141.365 94.8233 140.728 93.7085 140.728 92.9831V92.4168L141.63 93.0361C142.125 93.3723 143.062 93.8147 143.699 94.027ZM89.7838 96.6989C88.5106 101.671 88.5283 109.368 89.8192 116.977C90.1905 119.241 91.7466 124.09 92.7899 126.266C93.674 128.106 96.3795 132.194 97.5819 133.521C98.1124 134.087 98.4661 134.636 98.413 134.777C98.36 134.919 97.4228 135.644 96.3088 136.405C93.4795 138.369 92.1002 139.466 89.9076 141.607C88.0155 143.447 84.9387 146.969 84.0369 148.313C83.5418 149.074 83.5771 149.623 84.143 149.923C84.532 150.136 85.257 149.428 88.7228 145.376C91.5875 142.032 94.5758 139.484 98.4484 137.113L100.093 136.087L101.101 136.741C103.965 138.599 109.111 140.227 115.247 141.236C116.467 141.43 117.033 141.819 117.51 142.757C117.882 143.465 119.756 145.411 120.711 146.066C121.135 146.349 122.32 146.951 123.363 147.393C125.609 148.331 126.812 148.508 130.879 148.508H133.69L133.619 150.065L133.566 151.622L131.957 154.436C129.376 158.965 127.201 163.017 123.717 169.83C120.163 176.766 118.695 179.296 117.245 180.889C115.671 182.64 115.371 182.746 110.066 183.277C106.176 183.684 105.203 184.091 100.747 187.117C98.3423 188.745 97.8825 189.187 97.9709 189.753C98.0417 190.284 98.9789 190.497 100.783 190.39C101.879 190.32 102.445 190.16 103.753 189.577C104.637 189.17 105.415 188.851 105.468 188.851C105.521 188.851 105.362 189.205 105.115 189.63C104.726 190.302 104.69 190.479 104.85 190.957C104.956 191.275 105.168 191.505 105.327 191.505C105.504 191.505 106.158 190.833 106.812 190.019C108.528 187.86 110.101 186.905 111.94 186.905C113.214 186.905 114.115 186.551 115.335 185.56C116.785 184.427 118.076 183.773 119.615 183.454C121.613 183.03 122.656 182.039 126.529 176.819C128.633 173.988 131.639 169.547 132.912 167.423C133.566 166.344 133.991 165.831 134.398 165.636C134.716 165.477 135.971 164.875 137.191 164.291C141.435 162.256 144.919 159.125 147.394 155.108C147.943 154.206 148.013 154.152 147.907 154.648C147.73 155.639 146.563 158.576 144.936 162.133C142.019 168.485 140.905 171.705 140.038 176.377C139.313 180.305 139.225 181.543 139.243 187.436C139.26 195.699 139.472 197.415 142.319 212.119C143.186 216.596 144.3 222.4 144.777 225.036C145.272 227.655 145.98 231.371 146.369 233.264C146.758 235.157 147.094 237.033 147.129 237.422L147.182 238.13L146.475 238.077C144.954 237.971 139.066 236.927 136.13 236.237C123.045 233.211 110.579 227.832 100.553 220.86C95.0002 216.985 91.6051 214.154 86.7777 209.376C78.1839 200.866 70.9339 189.187 67.2029 177.881C63.4895 166.662 62.4285 155.303 64.0023 143.748C65.3462 134.034 68.4053 125.045 73.4095 116.127C75.9559 111.58 79.0503 107.192 82.693 102.892C84.9564 100.22 89.5893 95.4249 89.8899 95.4249C90.0667 95.4249 90.0491 95.7257 89.7838 96.6989ZM213.599 97.6721C218.161 102.308 220.566 105.157 223.59 109.492C226.012 112.942 227.515 115.561 230.044 120.639C232.06 124.709 232.484 125.753 233.81 129.752C236.445 137.679 237.506 143.677 237.753 151.958C237.983 159.832 237.046 166.963 234.694 175.368C232.325 183.808 226.719 194.619 220.866 201.945C216.216 207.802 209.461 214.349 203.59 218.719C201.91 219.975 195.863 224.063 195.686 224.063C195.633 224.063 194.926 224.47 194.112 224.965C192.114 226.186 184.705 229.813 181.752 231.017C176.341 233.246 170.099 235.193 164.069 236.52C162.23 236.927 154.75 238.218 154.22 238.218C153.849 238.218 153.955 237.015 154.627 233.848C154.963 232.22 155.511 229.353 155.847 227.513C156.183 225.655 156.766 222.523 157.155 220.524C161.134 200.335 161.435 198.512 161.77 192.744C162.089 187.064 161.947 181.791 161.399 178.5C161.152 176.925 160.391 173.634 159.79 171.44C159.083 168.839 158.446 167.211 156.059 161.938C153.636 156.577 152.964 154.701 153.424 154.701C153.495 154.701 153.778 155.108 154.043 155.586C155.21 157.656 158.075 160.717 160.444 162.398C161.806 163.371 164.936 165.017 166.174 165.424C167.075 165.707 167.164 165.813 168.101 167.246C172.522 174.129 176.536 179.721 178.445 181.667C179.595 182.817 180.108 183.083 182.795 183.914C183.556 184.144 184.404 184.551 184.829 184.905C186.491 186.232 187.34 186.728 188.383 186.922C188.967 187.046 189.479 187.17 189.515 187.188C189.745 187.382 185.342 191.558 185.094 191.399C185.006 191.346 184.687 191.346 184.404 191.417C184.015 191.505 183.697 191.788 183.273 192.478C182.565 193.558 182.159 193.894 179.63 195.451C178.605 196.07 176.695 197.238 175.386 198.052C171.302 200.565 167.341 203.307 165.961 204.599C162.195 208.12 160.957 210.881 162.248 212.862C163.344 214.561 164.989 214.349 167.871 212.119C169.692 210.704 170.895 209.5 178.392 201.591C185.076 194.549 185.2 194.425 185.819 194.478C187.092 194.584 187.87 193.876 187.145 193.275C187.004 193.151 186.88 192.903 186.88 192.708C186.88 192.301 191.124 188.037 191.707 187.86C192.026 187.754 192.379 188.037 193.882 189.63C195.138 190.974 195.739 191.488 195.934 191.417C196.553 191.187 196.517 190.444 195.863 189.506C195.368 188.798 195.562 188.727 196.535 189.276C198.179 190.196 200.938 190.674 202.406 190.284C203.06 190.107 203.148 190.019 203.148 189.577C203.148 189.01 202.83 188.692 201.026 187.489C200.284 186.993 199.576 186.462 199.453 186.303C199.187 185.985 199.311 185.914 202.087 184.852C206.402 183.189 213.899 179.402 216.18 177.721C219.01 175.633 221.185 173.192 222.316 170.803C222.865 169.67 222.865 169.617 222.865 166.91C222.865 164.344 222.829 164.114 222.422 163.283C222.122 162.681 221.698 162.203 221.096 161.779C220.619 161.442 219.894 160.805 219.505 160.381C217.648 158.346 216.746 157.567 215.632 157.019C212.043 155.249 208.259 156.187 204.068 159.85C199.541 163.796 195.668 169.883 191.672 179.349C190.982 180.977 190.417 182.393 190.417 182.481C190.417 182.57 190.24 182.764 190.028 182.906C189.709 183.1 189.303 183.118 188.153 182.994C186.367 182.817 185.271 182.357 184.263 181.366C182.53 179.703 181.345 177.686 176.518 168.273C172.663 160.788 170.47 156.7 168.631 153.675C167.341 151.534 167.27 151.233 167.57 149.233L167.694 148.455L171.231 148.419C175.28 148.402 175.934 148.278 178.516 147.004C180.691 145.925 182.442 144.509 183.467 142.97C184.387 141.589 184.705 141.395 186.703 141.076C188.489 140.793 192.786 139.749 194.82 139.095C196.942 138.422 198.887 137.52 199.983 136.741C200.46 136.405 200.885 136.122 200.938 136.122C201.15 136.122 204.934 138.546 206.119 139.448C208.665 141.359 211.141 143.837 214.43 147.747C216.198 149.87 216.623 150.171 217.082 149.711C217.666 149.127 217.224 148.366 214.589 145.27C211.972 142.191 208.86 139.289 206.048 137.29C204.704 136.334 203.343 135.326 203.042 135.043L202.512 134.529L203.413 133.592C205.5 131.433 208.701 125.859 210.027 122.073C210.699 120.162 211.318 117.207 211.848 113.296C212.52 108.253 212.326 101.193 211.371 97.0528C211.07 95.7965 211.052 95.4249 211.247 95.4249C211.318 95.4249 212.379 96.4335 213.599 97.6721ZM91.6405 101.388C93.4265 105.068 96.627 108.289 100.323 110.147C102.179 111.084 104.16 111.704 110.579 113.296C121.383 115.968 127.024 118.233 131.551 121.666L133.213 122.94L133.319 124.09C133.478 125.576 133.496 130.265 133.372 130.743L133.266 131.132L132.01 130.796C128.491 129.876 125.768 129.557 121.454 129.557C116.927 129.557 113.426 129.947 109.482 130.867L108.386 131.132L107.254 129.929C104.92 127.469 101.95 122.798 100.676 119.613C100.323 118.711 99.9514 117.879 99.8453 117.755C99.5801 117.437 98.6606 117.49 98.5191 117.826C98.0417 119.082 102.003 126.496 105.186 130.265C105.787 130.973 106.211 131.628 106.123 131.698C106.052 131.769 104.832 132.282 103.417 132.813C102.003 133.344 100.729 133.839 100.57 133.892C100.111 134.087 96.963 130.141 95.3185 127.328C93.3027 123.877 91.8527 119.454 91.1277 114.623C90.774 112.199 90.4558 105.581 90.5972 103.564C90.7564 101.37 90.8801 100.379 91.0216 100.379C91.0923 100.379 91.3576 100.839 91.6405 101.388ZM210.522 105.157C210.716 113.243 209.355 120.197 206.437 126.001C204.704 129.469 200.885 134.352 200.301 133.892C200.16 133.769 199.064 133.308 197.843 132.848C194.908 131.734 194.961 131.769 195.209 131.291C195.332 131.079 195.916 130.265 196.517 129.487C200.443 124.444 203.59 117.914 202.353 117.437C201.645 117.154 201.239 117.525 200.673 118.905C198.869 123.276 195.863 128.018 193.458 130.354L192.751 131.026L190.912 130.654C188.312 130.088 185.996 129.805 182.548 129.575C178.074 129.274 173.972 129.61 169.94 130.584C168.207 131.008 167.924 131.026 167.765 130.814C167.517 130.442 167.677 123.824 167.959 123.063C168.384 121.913 173.972 118.604 178.64 116.729C181.186 115.685 184.74 114.659 191.566 112.96C197.437 111.509 198.816 111.067 200.92 110.005C204.474 108.183 207.516 105.21 209.266 101.866C209.62 101.193 209.938 100.574 209.991 100.485C210.274 100.043 210.451 101.529 210.522 105.157ZM152.222 105.104C152.239 108.271 152.841 110.447 154.132 111.916C154.892 112.765 156.872 113.703 159.118 114.269C162.248 115.048 162.531 115.172 163.539 116.216C165.891 118.711 166.067 120.533 165.82 139.413L165.661 151.658L168.03 155.869C171.019 161.23 173.105 165.194 176.235 171.422C179.064 177.049 179.966 178.659 181.222 180.393C181.699 181.066 182.106 181.649 182.106 181.703C182.106 181.773 181.858 181.773 181.558 181.703C180.532 181.508 179.453 180.499 177.384 177.792C175.033 174.731 169.569 166.609 168.472 164.521C168.066 163.743 167.093 161.991 166.315 160.646C163.999 156.63 162.513 153.197 161.877 150.384C161.47 148.649 160.886 142.881 160.763 139.572C160.674 136.511 160.939 129.61 161.222 128.177C161.399 127.31 161.222 126.62 160.763 126.266C160.338 125.948 159.684 126.355 158.411 127.752C155.635 130.814 153.672 134.742 151.886 140.722L151.55 141.873L151.532 135.414C151.532 128.248 151.638 126.832 152.328 125.47C152.929 124.284 154.326 122.922 155.723 122.179C156.324 121.86 156.819 121.524 156.819 121.453C156.819 121.382 156.253 121.011 155.564 120.622C153.919 119.719 152.717 118.374 151.532 116.127C151.019 115.154 150.542 114.358 150.471 114.358C150.383 114.358 150.135 114.8 149.905 115.349C148.968 117.702 147.111 119.914 145.343 120.816C144.848 121.064 144.441 121.329 144.441 121.418C144.441 121.489 145.06 121.966 145.821 122.462C147.359 123.453 148.172 124.337 149.11 126.071L149.746 127.222V134.282C149.746 138.174 149.675 141.448 149.587 141.589C149.463 141.784 149.339 141.554 149.127 140.793C148.385 138.033 147.642 136.051 146.546 133.839C145.043 130.849 143.84 128.991 142.337 127.434C141.188 126.231 140.569 125.93 140.251 126.425C140.18 126.549 140.144 129.911 140.162 133.91C140.268 146.579 139.685 150.543 136.855 156.541C134.928 160.629 132.541 164.751 128.951 170.237C124.407 177.155 121.365 181.012 119.827 181.791C118.642 182.393 118.678 182.304 120.287 179.809C121.896 177.314 123.399 174.519 126.458 168.379C128.704 163.867 130.083 161.266 133.726 154.701L135.335 151.781V136.387C135.335 119.383 135.299 120.091 136.466 117.737C137.492 115.72 138.447 115.119 142.284 114.11C144.954 113.385 145.75 113.031 146.846 112.022C148.314 110.66 148.862 108.82 148.862 105.104V103.033H152.222V105.104ZM143.822 132.247C145.414 135.043 147.288 139.36 147.041 139.59C146.988 139.643 146.351 138.9 145.626 137.944C144.901 136.989 143.858 135.786 143.292 135.273C142.107 134.176 141.983 133.804 141.983 131.167V129.487L142.408 129.964C142.638 130.23 143.274 131.256 143.822 132.247ZM159.206 131.114C158.994 133.839 158.853 134.335 158.092 134.989C157.474 135.503 156.819 136.281 154.715 138.935C154.379 139.36 154.061 139.625 154.025 139.519C153.937 139.236 155.493 135.538 156.678 133.291C157.721 131.256 158.871 129.575 159.171 129.575C159.277 129.575 159.277 130.212 159.206 131.114ZM125.609 131.362C128.191 131.592 129.888 131.893 131.94 132.512L133.478 132.99V140.599L130.79 140.492C124.531 140.245 118.925 138.811 114.876 136.423C112.895 135.255 110.384 133.415 110.137 132.937C109.889 132.477 110.207 132.335 112.259 131.981C116.838 131.238 121.631 131.008 125.609 131.362ZM183.078 131.344C187.075 131.628 190.947 132.282 190.947 132.689C190.947 133.291 187.304 135.998 184.776 137.272C183.237 138.033 179.895 139.183 178.039 139.572C174.838 140.245 169.463 140.829 168.207 140.634L167.429 140.528V139.254C167.429 138.546 167.482 136.847 167.553 135.449L167.659 132.937L169.003 132.512C172.61 131.38 177.544 130.973 183.078 131.344ZM108.015 133.397C108.262 133.574 108.81 134.034 109.253 134.459C110.685 135.821 113.32 137.661 115.318 138.705C116.414 139.271 117.174 139.767 117.015 139.802C116.662 139.873 110.42 138.546 108.492 137.98C105.716 137.184 102.445 135.75 102.445 135.343C102.445 135.06 103.523 134.512 105.504 133.804C106.547 133.432 107.431 133.132 107.484 133.132C107.537 133.114 107.785 133.238 108.015 133.397ZM196.429 134.158C198.816 135.096 198.869 135.131 198.551 135.503C197.649 136.582 191.69 138.493 186.12 139.484C183.856 139.891 183.202 139.873 184.316 139.413C186.35 138.599 189.674 136.387 191.725 134.512C193.069 133.308 193.157 133.255 193.847 133.326C194.254 133.379 195.403 133.751 196.429 134.158ZM143.716 138.334C144.282 139.041 145.113 140.209 145.555 140.917C146.44 142.333 147.341 144.261 147.129 144.261C147.058 144.261 146.245 143.589 145.325 142.757C144.406 141.926 143.31 141.023 142.903 140.758L142.143 140.28V138.67C142.143 136.387 142.178 136.387 143.716 138.334ZM158.941 138.67V140.315L158.022 140.935C157.509 141.271 156.413 142.156 155.617 142.899C154.803 143.66 154.061 144.261 153.955 144.261C153.725 144.261 155.104 141.696 156.395 139.749C157.58 137.927 158.552 136.794 158.782 136.936C158.871 136.989 158.941 137.767 158.941 138.67ZM181.593 142.987C180.974 144.155 178.056 145.995 175.651 146.721C174.148 147.181 171.178 147.429 169.286 147.252C168.508 147.181 167.765 147.11 167.659 147.11C167.482 147.092 167.429 146.562 167.429 145.058V143.023H169.781C173.247 143.005 180.355 142.686 180.956 142.51C181.593 142.333 181.858 142.51 181.593 142.987ZM124.283 142.846C126.175 142.97 129.022 143.023 130.613 142.987L133.478 142.917L133.513 144.173C133.584 146.243 133.513 146.809 133.177 147.039C132.771 147.358 128.668 147.322 126.935 147.022C125.291 146.721 123.505 146.048 122.143 145.217C120.87 144.438 119.12 142.881 119.261 142.633C119.332 142.545 119.703 142.51 120.11 142.545C120.499 142.598 122.391 142.74 124.283 142.846ZM159.295 144.421C159.401 145.146 159.454 145.748 159.436 145.765C159.401 145.783 158.8 146.172 158.11 146.632C156.731 147.535 155.316 148.614 153.742 149.994C153.194 150.472 152.699 150.808 152.628 150.755C152.346 150.454 154.91 146.526 156.519 144.81C157.421 143.872 158.8 142.81 158.959 142.97C159.047 143.058 159.189 143.713 159.295 144.421ZM143.327 143.713C144.583 144.721 145.909 146.19 146.793 147.552C147.907 149.286 148.915 151.162 148.738 151.162C148.668 151.144 147.801 150.437 146.829 149.552C145.856 148.667 144.282 147.429 143.345 146.809L141.63 145.677L141.718 144.739C141.913 142.722 142.019 142.669 143.327 143.713ZM59.8115 144.191C59.9706 144.332 60.2182 144.916 60.3596 145.465C60.5188 146.013 60.8371 147.11 61.0669 147.889C61.5621 149.517 61.6858 150.419 61.4206 150.472C61.2438 150.525 58.5029 146.597 57.8487 145.376C57.495 144.704 57.6011 144.527 58.609 144.173C59.4932 143.854 59.4932 143.854 59.8115 144.191ZM242.581 144.261C242.952 144.456 243.324 144.686 243.377 144.792C243.5 145.004 243.465 145.075 241.255 148.349C239.363 151.162 239.257 151.074 240.194 147.535C241.202 143.66 241.255 143.589 242.581 144.261ZM56.5048 146.774C56.6993 147.004 57.159 147.659 57.5481 148.243C57.9194 148.826 58.5029 149.676 58.8389 150.136C59.1572 150.578 59.4048 151.038 59.3517 151.162C59.2987 151.357 55.1432 149.375 54.8072 148.986C54.542 148.667 55.603 146.385 56.0097 146.385C56.0804 146.385 56.3103 146.562 56.5048 146.774ZM245.958 147.712C246.241 148.189 246.471 148.703 246.471 148.826C246.471 149.074 241.767 151.463 241.591 151.304C241.502 151.197 243.96 147.482 244.579 146.792C245.021 146.296 245.233 146.438 245.958 147.712ZM143.663 149.888C145.591 151.321 146.917 152.56 146.917 152.896C146.917 153.887 144.883 157.001 142.779 159.248C141.718 159.992 140.539 161.124 139.048 161.956C137.683 162.717 135.857 163.739 135.688 163.46C136.042 162.752 136.007 163.106 136.696 161.849C138.942 157.744 140.463 153.905 141.082 150.773C141.276 149.764 141.488 148.844 141.524 148.72C141.63 148.419 141.895 148.561 143.663 149.888ZM159.542 148.667C159.613 148.756 159.772 149.534 159.931 150.401C160.374 153.002 161.364 155.603 163.574 159.992C164.724 162.274 165.537 163.743 165.484 163.796C165.342 163.955 162.991 162.805 161.824 161.956C160.444 161.071 157.827 158.93 156.572 157.373C156.059 156.736 155.281 155.533 154.874 154.736C154.132 153.268 154.114 153.25 154.397 152.666C154.697 152.047 156.784 150.154 158.322 149.11C159.26 148.473 159.401 148.419 159.542 148.667ZM56.717 152.808C58.4499 153.675 58.9273 153.993 58.9804 154.312C59.0157 154.577 58.5913 155.373 57.6718 156.736C56.9292 157.851 56.2572 158.771 56.1688 158.771C56.0804 158.771 55.6914 158.275 55.3023 157.674L54.595 156.577L56.9115 155.71C62.9943 153.763 59.5462 153.515 58.9804 153.728C58.3084 153.975 54.3121 155.143 54.0822 155.409C53.7639 153.993 53.817 151.693 54.3121 151.693C54.4359 151.693 55.5145 152.188 56.717 152.808ZM247.125 152.171C247.302 152.808 247.302 155.179 247.125 155.816C247.019 156.223 246.931 156.276 246.56 156.187C246.206 156.099 246.242 155.9 246.331 156.112C247.374 156.573 245.658 158.505 245.233 158.841C244.897 159.142 244.508 158.629 243.306 156.683C242.033 154.63 241.874 154.241 242.28 154.4C244.349 155.409 246.029 156.028 247.002 156.559C248.239 157.234 247.832 155.518 247.585 155.338C247.32 155.143 242.846 153.622 242.952 153.374C244.331 152.648 246.524 151.711 246.772 151.693C246.895 151.693 247.055 151.905 247.125 152.171ZM241.962 157.939C242.669 159.089 243.235 160.133 243.182 160.257C243.058 160.558 242.333 160.894 241.803 160.894C241.219 160.894 241.007 160.575 240.795 159.372C240.689 158.788 240.459 157.744 240.264 157.019C240.088 156.293 239.928 155.533 239.928 155.338C239.928 154.984 239.964 154.984 240.282 155.409C240.494 155.656 241.237 156.789 241.962 157.939ZM61.0846 155.71C61.0316 155.886 60.784 156.984 60.5365 158.151C60.006 160.593 59.723 161.142 59.1572 160.965C58.5913 160.806 57.7956 160.381 57.7956 160.257C57.7956 160.08 59.0157 158.098 59.9706 156.683C60.8017 155.462 61.2791 155.055 61.0846 155.71ZM150.064 155.851C150.259 156.099 150.471 156.293 150.542 156.293C150.613 156.293 150.825 156.099 151.019 155.851C151.214 155.603 151.426 155.409 151.514 155.409C151.585 155.409 151.974 156.382 152.363 157.567C152.752 158.771 153.53 160.735 154.078 161.956C157.403 169.263 157.898 170.573 158.747 174.023C159.985 179.031 160.091 180.128 160.091 187.436C160.091 194.619 159.967 196.212 158.959 202.122C158.499 204.758 153.725 229.672 152.098 237.953L151.426 241.315L151.338 231.052C151.249 221.939 151.196 220.683 150.931 219.852C150.118 217.41 149.958 219.126 149.764 233.175L149.658 241.315L148.119 233.529C147.253 229.247 146.174 223.585 145.679 220.966C145.202 218.33 144.388 214.119 143.893 211.588C142.107 202.37 141.453 198.618 141.241 196.106C140.922 192.638 140.922 182.658 141.223 179.915C141.789 174.89 143.575 169.299 146.864 162.31C147.819 160.31 148.685 158.063 149.127 156.417C149.286 155.869 149.481 155.409 149.569 155.409C149.658 155.409 149.87 155.603 150.064 155.851ZM214.66 158.718C215.738 159.213 217.118 160.239 217.118 160.522C217.118 160.593 216.676 160.752 216.127 160.876C213.422 161.496 210.239 163.619 205.359 168.078C201.256 171.847 198.339 175.156 192.574 182.57L192.167 183.1L192.256 182.64C192.503 181.526 195.775 174.554 197.454 171.599C200.726 165.848 204.828 161.071 208.152 159.16C210.327 157.904 212.609 157.744 214.66 158.718ZM217.772 163.053C217.524 165.141 215.544 168.078 212.697 170.59C211.088 172.006 203.343 177.987 199.735 180.552C197.348 182.286 195.598 183.277 194.519 183.507C194.112 183.614 193.776 183.649 193.776 183.631C193.776 183.507 196.588 179.968 198.71 177.438C201.451 174.165 207.198 168.379 209.691 166.379C213.174 163.601 215.738 162.15 217.188 162.133H217.878L217.772 163.053ZM220.919 164.185C221.202 164.751 221.273 165.229 221.273 166.822C221.273 168.503 221.22 168.91 220.831 169.83C219.31 173.422 216.074 176.288 210.115 179.331C204.351 182.269 196.959 185.259 196.959 184.64C196.959 184.551 197.967 183.79 199.223 182.959C203.732 179.951 213.104 172.678 215.455 170.36C217.401 168.449 219.416 165.123 219.416 163.849C219.416 162.77 220.301 162.964 220.919 164.185ZM113.249 184.87C113.054 185.011 112.612 185.171 112.276 185.224C111.923 185.277 111.251 185.401 110.756 185.507C110.278 185.595 109.2 185.79 108.368 185.949C106.529 186.268 106.229 186.392 104.125 187.542C103.205 188.055 102.25 188.533 102.003 188.603C101.596 188.709 101.578 188.692 101.826 188.409C102.568 187.506 106.211 185.648 108.103 185.224C109.164 184.976 111.587 184.693 113.054 184.64C113.549 184.622 113.567 184.622 113.249 184.87ZM191.69 185.047C193.812 185.365 195.492 186.002 197.614 187.329C200.549 189.152 199.859 189.134 196.553 187.312C194.767 186.321 194.271 186.126 193.193 186.002C192.486 185.914 191.531 185.737 191.053 185.578C190.576 185.436 189.815 185.312 189.373 185.294C188.33 185.277 187.729 185.1 187.623 184.799C187.534 184.551 188.56 184.604 191.69 185.047ZM176.872 200.653C169.18 208.757 167.447 210.474 165.784 211.588C163.698 213.004 162.761 211.995 163.928 209.589C164.724 207.943 168.844 204.245 172.752 201.715C175.298 200.052 179.506 197.521 179.595 197.61C179.63 197.645 178.41 199.008 176.872 200.653Z" fill="#D4BB85"/>
<path d="M55.7748 70.5919L55.849 70.5107C55.9282 70.4241 55.9705 70.3236 55.9757 70.2092C55.9702 70.0849 55.944 69.9615 55.897 69.839C55.8599 69.7057 55.8026 69.5836 55.725 69.4729C55.6573 69.3513 55.5801 69.251 55.4936 69.1718L46.809 61.2275C46.7333 61.1582 46.6318 61.0952 46.5047 61.0386C46.3875 60.9712 46.2609 60.9249 46.1248 60.8998C45.9987 60.8639 45.8788 60.8537 45.7653 60.8691C45.641 60.8746 45.5392 60.9207 45.46 61.0072L45.3858 61.0884L45.2235 60.9399L50.9404 54.6903L52.45 56.0713L52.3015 56.2336C52.0328 56.0276 51.7273 55.927 51.3849 55.9318C51.0318 55.9268 50.6869 56.1082 50.3503 56.4762L47.3656 59.739L51.4725 63.4958L53.9375 60.8012C54.1652 60.5522 54.2775 60.2773 54.2745 59.9764C54.2814 59.6647 54.182 59.4148 53.9764 59.2267L54.1249 59.0643L56.154 60.9205L56.0055 61.0828C55.8107 60.9046 55.5687 60.8323 55.2795 60.866C54.9903 60.8996 54.727 61.0463 54.4894 61.306L52.0244 64.0007L56.943 68.5L60.1949 64.945C60.383 64.7394 60.4977 64.5162 60.5388 64.2756C60.58 64.035 60.5803 63.8066 60.5395 63.5905C60.4978 63.3535 60.421 63.1442 60.3091 62.9623C60.1963 62.7597 60.0857 62.6089 59.9775 62.5099L60.126 62.3476L62.0252 64.0849L55.9371 70.7403L55.7748 70.5919Z" fill="#D4BB85"/>
<path d="M67.0233 58.9777L67.1069 58.9062C67.196 58.8299 67.2502 58.7353 67.2694 58.6224C67.2791 58.4983 67.268 58.3726 67.2363 58.2453C67.2158 58.1085 67.1738 57.9804 67.1102 57.861C67.0579 57.7321 66.9935 57.6231 66.9173 57.5339L59.2659 48.5902C59.1992 48.5122 59.1062 48.4373 58.9869 48.3656C58.8788 48.2844 58.7588 48.2231 58.6268 48.1816C58.5059 48.1305 58.3882 48.1058 58.2737 48.1073C58.1496 48.0976 58.043 48.1309 57.9538 48.2072L57.8703 48.2787L57.7272 48.1115L60.1345 46.0521L60.2775 46.2193L60.1939 46.2908C60.1048 46.367 60.0554 46.4672 60.0457 46.5913C60.0265 46.7042 60.0328 46.8243 60.0645 46.9516C60.0962 47.0789 60.1382 47.207 60.1906 47.3359C60.2541 47.4553 60.3192 47.554 60.386 47.632L68.4092 57.0104L72.0702 53.8783C72.282 53.6972 72.423 53.4897 72.4932 53.2559C72.5634 53.0221 72.5867 52.7899 72.563 52.5592C72.541 52.3078 72.4808 52.0795 72.3823 51.8742C72.2855 51.6482 72.1751 51.4627 72.0512 51.3179L72.2183 51.1748L74.0203 53.2812L67.1663 59.1449L67.0233 58.9777Z" fill="#D4BB85"/>
<path d="M79.5814 48.9256L79.6739 48.866C79.7724 48.8024 79.8388 48.7159 79.873 48.6065C79.8992 48.4849 79.9052 48.3589 79.8908 48.2285C79.8888 48.0901 79.8644 47.9575 79.8174 47.8307C79.7828 47.6959 79.7337 47.5793 79.6701 47.4807L73.2877 37.5914C73.2321 37.5051 73.15 37.4184 73.0414 37.3314C72.9452 37.2364 72.8345 37.1595 72.7092 37.1007C72.5963 37.0339 72.483 36.9935 72.3693 36.9797C72.2476 36.9534 72.1375 36.9721 72.0389 37.0358L71.9465 37.0954L71.8272 36.9106L78.9438 32.3177L80.0533 34.0367L79.8684 34.156C79.6609 33.8885 79.3909 33.7136 79.0585 33.6314C78.7182 33.5368 78.3385 33.6247 77.9196 33.8951L74.2041 36.293L77.2223 40.9696L80.2908 38.9893C80.5742 38.8064 80.7527 38.569 80.8262 38.2772C80.912 37.9774 80.8794 37.7105 80.7283 37.4763L80.9131 37.357L82.4043 39.6676L82.2195 39.7869C82.0763 39.5651 81.8606 39.4337 81.5724 39.3928C81.2841 39.3519 80.9921 39.4269 80.6964 39.6178L77.6279 41.5981L81.2426 47.199L85.2907 44.5864C85.5249 44.4353 85.6924 44.2486 85.7934 44.0264C85.8943 43.8041 85.9525 43.5833 85.968 43.3638C85.9878 43.1241 85.9667 42.902 85.9047 42.6977C85.847 42.4731 85.7784 42.2992 85.6989 42.1759L85.8837 42.0566L87.2795 44.2193L79.7007 49.1105L79.5814 48.9256Z" fill="#D4BB85"/>
<path d="M96.2403 39.1818L96.3405 39.1364L96.4313 39.3367L94.2072 40.3452L94.1164 40.1448L94.2166 40.0994C94.3101 40.057 94.3787 39.9775 94.4225 39.8611C94.4797 39.7385 94.5108 39.6117 94.5158 39.4806C94.5207 39.3495 94.5093 39.2178 94.4815 39.0855C94.461 38.9337 94.4266 38.8044 94.3781 38.6976L89.5359 28.0181C89.4935 27.9246 89.4317 27.8238 89.3504 27.7156C89.2826 27.6015 89.1977 27.5031 89.0958 27.4205C88.9939 27.3378 88.8811 27.2843 88.7573 27.2599C88.6275 27.2222 88.4957 27.2336 88.3622 27.2941L88.262 27.3396L88.1711 27.1392L90.1948 26.2216L102.665 34.3847L98.0314 24.1661C97.989 24.0726 97.9205 23.9748 97.8259 23.8727C97.7447 23.7646 97.6464 23.6723 97.5312 23.5957C97.4293 23.5131 97.3232 23.4565 97.2127 23.4261C97.0963 23.3823 96.9846 23.3846 96.8777 23.4331L96.7775 23.4785L96.6867 23.2781L98.9308 22.2606L99.0216 22.461L98.9214 22.5064C98.8146 22.5548 98.7393 22.6373 98.6954 22.7538C98.6456 22.8569 98.6115 22.9771 98.5931 23.1142C98.5882 23.2453 98.5996 23.377 98.6274 23.5093C98.6552 23.6417 98.6903 23.7546 98.7327 23.8481L104.165 35.83L102.923 36.3932L90.4552 28.181L95.0794 38.3796C95.1278 38.4865 95.1957 38.6006 95.283 38.7221C95.3642 38.8302 95.4558 38.9256 95.5577 39.0082C95.6729 39.0848 95.7888 39.145 95.9052 39.1888C96.0217 39.2326 96.1334 39.2303 96.2403 39.1818Z" fill="#D4BB85"/>
<path d="M119.765 30.5612L119.871 30.5311C120.21 30.4345 120.335 30.2311 120.246 29.9208C120.214 29.808 120.159 29.6941 120.08 29.5793L116.71 24.981L113.008 26.0365L112.609 31.6178C112.599 31.7427 112.608 31.8545 112.636 31.9532C112.688 32.1366 112.78 32.2706 112.911 32.3553C113.038 32.4259 113.157 32.4451 113.27 32.4129L113.376 32.3828L113.436 32.5943L111.088 33.2639L111.028 33.0523L111.133 33.0221C111.317 32.9699 111.463 32.8138 111.572 32.554C111.691 32.276 111.765 31.9729 111.793 31.6445L112.959 17.3575L121.341 28.7852C121.52 29.0392 121.732 29.276 121.978 29.4957C122.238 29.7115 122.509 29.7791 122.791 29.6987L122.897 29.6685L122.957 29.8801L119.826 30.7728L119.765 30.5612ZM113.014 25.2569L116.273 24.328L113.383 20.3706L113.014 25.2569Z" fill="#D4BB85"/>
<path d="M149.8 26.7366L149.91 26.7329C150.262 26.7213 150.432 26.5542 150.422 26.2318C150.418 26.1145 150.392 25.9906 150.343 25.8601L148.188 20.5824L144.34 20.7095L142.601 26.0278C142.561 26.1466 142.542 26.2572 142.546 26.3598C142.552 26.5504 142.608 26.7026 142.715 26.8165C142.821 26.9157 142.933 26.9634 143.05 26.9595L143.16 26.9559L143.167 27.1758L140.726 27.2564L140.719 27.0365L140.829 27.0329C141.02 27.0266 141.199 26.9106 141.368 26.6849C141.551 26.4441 141.696 26.1678 141.803 25.8561L146.395 12.2771L151.759 25.3952C151.871 25.6849 152.02 25.9662 152.205 26.2389C152.405 26.5111 152.651 26.6424 152.944 26.6327L153.054 26.6291L153.062 26.8489L149.807 26.9564L149.8 26.7366ZM144.535 19.9547L147.922 19.8428L146.077 15.3032L144.535 19.9547Z" fill="#D4BB85"/>
<path d="M159.417 26.9912L159.527 27.0035C159.643 27.0166 159.75 26.9916 159.845 26.9286C159.942 26.851 160.027 26.7571 160.098 26.6471C160.184 26.5387 160.249 26.4205 160.293 26.2926C160.351 26.1663 160.387 26.0449 160.4 25.9283L161.714 14.2319C161.726 14.1299 161.717 14.0108 161.688 13.8747C161.674 13.7403 161.636 13.6106 161.577 13.4859C161.531 13.3627 161.469 13.2598 161.39 13.1771C161.312 13.0798 161.215 13.0246 161.099 13.0115L160.989 12.9992L161.014 12.7806L164.162 13.1343L164.138 13.3529L164.028 13.3406C163.912 13.3275 163.805 13.3598 163.707 13.4374C163.612 13.5005 163.528 13.587 163.457 13.6971C163.385 13.8071 163.321 13.9253 163.262 14.0515C163.218 14.1794 163.191 14.2944 163.179 14.3964L161.801 26.6613L166.589 27.1992C166.866 27.2303 167.114 27.1917 167.333 27.0834C167.551 26.9752 167.737 26.8337 167.89 26.659C168.058 26.4713 168.184 26.2714 168.267 26.0593C168.366 25.8343 168.426 25.6271 168.447 25.4376L168.666 25.4622L168.357 28.2168L159.393 27.2099L159.417 26.9912Z" fill="#D4BB85"/>
<path d="M179.807 15.5058L182.837 16.2693C184.415 16.6672 185.533 17.274 186.189 18.0899C186.864 18.8951 187.061 19.8524 186.781 20.9617C186.631 21.559 186.354 22.0565 185.951 22.4541C185.549 22.8517 185.071 23.155 184.52 23.3638C183.986 23.562 183.406 23.6729 182.78 23.6966C182.168 23.7239 181.577 23.6658 181.008 23.5224L180.198 23.3181L178.827 28.758C178.798 28.8718 178.78 29.0034 178.773 29.1527C178.769 29.2879 178.781 29.4195 178.809 29.5477C178.852 29.6794 178.898 29.7968 178.947 29.9001C179.011 30.0069 179.1 30.0747 179.214 30.1034L179.32 30.1302L179.267 30.3436L176.259 29.5854L176.312 29.3721L176.419 29.399C176.519 29.4241 176.622 29.4047 176.729 29.3409C176.835 29.2771 176.932 29.1954 177.017 29.096C177.103 28.9966 177.176 28.8864 177.237 28.7656C177.301 28.6306 177.347 28.5061 177.376 28.3924L180.242 17.022C180.292 16.8229 180.293 16.581 180.243 16.2963C180.194 16.0116 180.066 15.8282 179.86 15.746L179.754 15.7191L179.807 15.5058ZM181.838 16.8116L180.386 22.5715L181.026 22.7328C181.595 22.8762 182.119 22.9252 182.6 22.8799C183.094 22.8381 183.523 22.7269 183.886 22.5462C184.25 22.3655 184.551 22.1313 184.789 21.8436C185.028 21.5559 185.191 21.2414 185.277 20.9001C185.381 20.4877 185.406 20.0858 185.354 19.6944C185.319 19.2923 185.179 18.9168 184.934 18.5677C184.708 18.208 184.365 17.8872 183.907 17.6053C183.452 17.3092 182.862 17.0697 182.136 16.8869L181.838 16.8116Z" fill="#D4BB85"/>
<path d="M196.073 35.388L196.176 35.4265C196.505 35.5498 196.727 35.4604 196.84 35.1582C196.881 35.0483 196.904 34.9238 196.909 34.7848L196.927 29.0839L193.321 27.7352L189.687 31.9895C189.604 32.084 189.545 32.1793 189.509 32.2754C189.442 32.454 189.437 32.6162 189.492 32.7621C189.552 32.8942 189.637 32.9808 189.747 33.022L189.85 33.0605L189.773 33.2665L187.485 32.4111L187.562 32.205L187.666 32.2435C187.844 32.3103 188.054 32.2715 188.296 32.1271C188.557 31.9741 188.796 31.7739 189.014 31.5266L198.434 20.7219L198.395 34.8942C198.388 35.2049 198.419 35.5216 198.486 35.8443C198.567 36.1721 198.745 36.3873 199.019 36.4901L199.122 36.5286L199.045 36.7347L195.996 35.5941L196.073 35.388ZM193.789 27.1116L196.963 28.2985L196.987 23.3985L193.789 27.1116Z" fill="#D4BB85"/>
<path d="M208.173 40.9597L208.27 41.0106L208.169 41.2056L205.399 39.76L205.501 39.5649L205.599 39.6159C205.703 39.6701 205.814 39.6787 205.933 39.6414C206.051 39.6041 206.164 39.547 206.27 39.4701C206.39 39.4 206.493 39.3133 206.58 39.2098C206.674 39.0934 206.748 38.9832 206.802 38.8792L212.483 27.9966L210.22 26.8157C210.012 26.7071 209.807 26.6576 209.603 26.6671C209.4 26.6767 209.209 26.7259 209.03 26.8146C208.858 26.8903 208.702 26.9991 208.562 27.141C208.428 27.2699 208.321 27.4123 208.239 27.5683L208.044 27.4665L209.154 25.3407L217.911 29.9117L216.801 32.0375L216.606 31.9357C216.687 31.7797 216.743 31.6101 216.772 31.427C216.809 31.2308 216.809 31.0405 216.772 30.8562C216.743 30.6589 216.674 30.474 216.566 30.3016C216.457 30.1291 216.299 29.9886 216.091 29.88L213.789 28.6787L208.109 39.5612C208.054 39.6653 208.006 39.7891 207.965 39.9327C207.929 40.0632 207.911 40.1941 207.908 40.3253C207.919 40.4632 207.937 40.5882 207.961 40.7001C207.998 40.8189 208.069 40.9054 208.173 40.9597Z" fill="#D4BB85"/>
<path d="M230.965 37.9874C231.899 38.6483 232.618 39.4091 233.123 40.2697C233.637 41.1182 233.951 42.006 234.068 42.9331C234.205 43.8566 234.148 44.7869 233.898 45.724C233.669 46.6576 233.27 47.5254 232.702 48.3275C232.067 49.2253 231.315 49.9327 230.446 50.4496C229.588 50.975 228.682 51.3037 227.726 51.4357C226.77 51.5676 225.799 51.5181 224.812 51.287C223.846 51.0524 222.932 50.6301 222.071 50.02C221.149 49.3675 220.435 48.611 219.93 47.7504C219.437 46.8984 219.128 46.0148 219.004 45.0998C218.891 44.1932 218.951 43.2833 219.184 42.3702C219.417 41.457 219.809 40.6114 220.359 39.8332C220.902 39.0671 221.573 38.4103 222.374 37.863C223.183 37.3037 224.059 36.9172 225.001 36.7035C225.955 36.4982 226.942 36.4872 227.962 36.6704C228.982 36.8535 229.983 37.2926 230.965 37.9874ZM222.749 49.5567C223.576 50.0886 224.404 50.4047 225.231 50.5052C226.079 50.6021 226.884 50.5433 227.647 50.3286C228.419 50.102 229.116 49.7512 229.74 49.2762C230.375 48.8097 230.905 48.2772 231.329 47.6787C231.795 47.0202 232.145 46.2711 232.381 45.4313C232.616 44.5914 232.702 43.7454 232.641 42.8931C232.588 42.0289 232.368 41.2089 231.983 40.4331C231.618 39.6538 231.053 38.993 230.287 38.4506C229.545 37.9253 228.762 37.6226 227.938 37.5426C227.122 37.4506 226.323 37.5137 225.54 37.7318C224.768 37.9585 224.05 38.3128 223.386 38.7947C222.721 39.2767 222.173 39.8229 221.741 40.4334C221.274 41.0919 220.93 41.8452 220.707 42.6936C220.492 43.5299 220.416 44.3742 220.477 45.2264C220.539 46.0787 220.75 46.8842 221.112 47.6431C221.485 48.4104 222.031 49.0483 222.749 49.5567Z" fill="#D4BB85"/>
<path d="M243.15 49.0597C243.089 49.1233 243.029 49.2181 242.969 49.3439L238.564 59.5582L248.644 54.6144C248.675 54.6033 248.716 54.5816 248.767 54.5494C248.818 54.5171 248.854 54.4903 248.874 54.4691C248.996 54.3419 249.029 54.2011 248.974 54.0467C248.939 53.8919 248.879 53.774 248.794 53.6929L248.946 53.5339L250.68 55.1906L250.528 55.3496C250.369 55.1976 250.18 55.0982 249.961 55.0513C249.753 55.0145 249.515 55.0614 249.249 55.192L236.076 61.6843L241.839 48.2026C241.927 47.9827 241.963 47.7537 241.947 47.5154C241.942 47.2873 241.855 47.0819 241.684 46.899L241.836 46.7399L244.095 48.8982L243.943 49.0573C243.848 48.9661 243.717 48.912 243.55 48.895C243.405 48.8776 243.271 48.9325 243.15 49.0597Z" fill="#D4BB85"/>
<path d="M248.574 74.8044L248.643 74.8896C248.866 75.162 249.103 75.196 249.352 74.9917C249.443 74.9174 249.526 74.8214 249.6 74.7037L252.483 69.7858L250.045 66.8062L244.764 68.6549C244.645 68.6952 244.546 68.7478 244.467 68.8128C244.319 68.9336 244.232 69.0708 244.207 69.2246C244.192 69.3691 244.222 69.4867 244.296 69.5775L244.366 69.6626L244.196 69.802L242.649 67.9121L242.82 67.7728L242.889 67.8579C243.01 68.0054 243.211 68.0777 243.493 68.0745C243.795 68.0735 244.103 68.0208 244.415 67.9166L257.992 63.3166L250.829 75.5457C250.667 75.8109 250.534 76.0999 250.43 76.4126C250.335 76.7366 250.38 77.0121 250.566 77.2391L250.636 77.3243L250.466 77.4636L248.403 74.9438L248.574 74.8044ZM250.763 66.5028L252.909 69.1248L255.395 64.9018L250.763 66.5028Z" fill="#D4BB85"/>
<path d="M65.5479 247.116L68.3395 249.605L67.6367 250.393L64.8451 247.904L62.3562 250.696L61.5516 249.978L64.0405 247.187L61.2325 244.683L61.9352 243.895L64.7432 246.399L67.2468 243.591L68.0514 244.308L65.5479 247.116Z" fill="#D4BB85"/>
<path d="M70.4023 261.143L69.5745 260.523L80.7309 253.512L76.1341 250.071C75.9932 249.966 75.8377 249.868 75.6674 249.777C75.5178 249.683 75.352 249.623 75.1701 249.597C75.0087 249.568 74.8342 249.593 74.6466 249.672C74.4794 249.749 74.3124 249.899 74.1454 250.122L73.9692 249.99L75.4458 248.017L82.6668 253.423L70.4023 261.143Z" fill="#D4BB85"/>
<path d="M93.0433 268.845C93.5283 269.054 93.9875 269.155 94.4208 269.15C94.8599 269.132 95.2549 269.03 95.6057 268.846C95.9699 268.667 96.2842 268.419 96.5485 268.102C96.8263 267.79 97.0492 267.439 97.2173 267.048C97.4202 266.577 97.549 266.073 97.6038 265.538C97.6719 265.009 97.6428 264.501 97.5164 264.016C97.4093 263.523 97.2029 263.074 96.8973 262.672C96.611 262.261 96.2118 261.945 95.6999 261.725C95.2418 261.528 94.7971 261.448 94.3656 261.486C93.9535 261.517 93.5595 261.634 93.1836 261.84C92.8271 262.038 92.5041 262.306 92.2147 262.644C91.9388 262.989 91.7139 263.363 91.54 263.767C91.3429 264.225 91.216 264.706 91.1594 265.208C91.1163 265.716 91.1445 266.208 91.2439 266.681C91.3627 267.148 91.5643 267.57 91.8487 267.948C92.1467 268.331 92.5449 268.63 93.0433 268.845ZM88.7591 270.953C88.8587 271.315 89.022 271.641 89.2488 271.93C89.4891 272.225 89.7555 272.404 90.0482 272.466C90.6275 272.715 91.1974 272.801 91.7579 272.723C92.3185 272.644 92.8493 272.45 93.3505 272.139C93.8651 271.833 94.3202 271.462 94.7156 271.025C95.1303 270.581 95.467 270.151 95.7257 269.736C95.1843 269.918 94.6421 269.972 94.0991 269.898C93.5696 269.83 93.0354 269.68 92.4965 269.448C91.8094 269.152 91.2524 268.777 90.8256 268.322C90.418 267.859 90.1202 267.363 89.9322 266.836C89.7635 266.3 89.6989 265.745 89.7382 265.171C89.7911 264.603 89.9305 264.057 90.1566 263.531C90.3827 263.006 90.6935 262.525 91.0889 262.088C91.4844 261.652 91.9413 261.313 92.4597 261.073C92.9839 260.82 93.5541 260.682 94.1704 260.66C94.8002 260.643 95.4586 260.783 96.1457 261.079C96.9136 261.409 97.5062 261.832 97.9233 262.347C98.3539 262.867 98.64 263.445 98.7816 264.081C98.929 264.703 98.9473 265.366 98.8365 266.069C98.7391 266.777 98.5426 267.475 98.247 268.162C97.8644 269.051 97.3845 269.907 96.8075 270.728C96.2363 271.536 95.5815 272.204 94.8431 272.733C94.124 273.254 93.3185 273.586 92.4266 273.729C91.5482 273.878 90.6106 273.738 89.6136 273.309C89.425 273.228 89.1979 273.106 88.9324 272.944C88.6669 272.782 88.4591 272.652 88.309 272.556C88.2205 272.502 88.1253 272.445 88.0233 272.385C87.9348 272.331 87.904 272.31 87.9309 272.321L88.557 270.866L88.7591 270.953Z" fill="#D4BB85"/>
<path d="M103.88 265.587L104.067 265.652C104.136 265.676 104.231 265.67 104.352 265.634C104.487 265.604 104.632 265.568 104.785 265.528C104.957 265.479 105.155 265.424 105.379 265.362C105.616 265.304 105.869 265.268 106.138 265.253C106.426 265.228 106.734 265.234 107.063 265.271C107.392 265.307 107.744 265.391 108.118 265.52C108.589 265.684 109.022 265.912 109.418 266.204C109.818 266.483 110.143 266.821 110.393 267.218C110.648 267.601 110.808 268.037 110.871 268.525C110.935 269.012 110.866 269.547 110.664 270.129C110.496 270.614 110.259 271.029 109.953 271.373C109.647 271.717 109.289 272.012 108.878 272.257C108.48 272.508 108.046 272.73 107.575 272.923C107.123 273.108 106.657 273.288 106.177 273.463C105.716 273.629 105.259 273.804 104.807 273.989C104.369 274.179 103.954 274.391 103.561 274.628C103.182 274.869 102.836 275.152 102.521 275.478C102.211 275.79 101.968 276.155 101.791 276.575L106.114 278.075C106.641 278.258 107.088 278.312 107.455 278.238C107.827 278.149 108.095 277.893 108.258 277.468L108.445 277.533L107.623 279.902L99.9323 277.235C100.149 276.611 100.452 276.072 100.843 275.618C101.238 275.149 101.679 274.751 102.165 274.423C102.656 274.081 103.17 273.786 103.707 273.537C104.257 273.294 104.795 273.061 105.322 272.84C105.756 272.665 106.175 272.484 106.581 272.299C107.001 272.119 107.379 271.924 107.715 271.715C108.071 271.496 108.373 271.252 108.622 270.981C108.89 270.701 109.086 270.381 109.211 270.021C109.37 269.564 109.428 269.126 109.387 268.708C109.36 268.295 109.258 267.918 109.081 267.578C108.918 267.242 108.692 266.954 108.403 266.713C108.118 266.46 107.809 266.275 107.477 266.16C106.77 265.914 106.072 265.913 105.383 266.155C104.698 266.383 104.074 266.772 103.511 267.322L103.303 267.25L103.88 265.587Z" fill="#D4BB85"/>
<path d="M115.19 268.564L115.381 268.615C115.494 268.645 115.62 268.656 115.759 268.647C115.898 268.639 116.053 268.627 116.224 268.612C116.488 268.591 116.801 268.583 117.164 268.588C117.53 268.58 117.962 268.641 118.458 268.773C119.025 268.924 119.505 269.143 119.899 269.43C120.311 269.707 120.628 270.026 120.851 270.389C121.091 270.741 121.24 271.122 121.298 271.532C121.37 271.946 121.353 272.351 121.247 272.748C121.1 273.301 120.789 273.787 120.313 274.207C119.851 274.631 119.231 274.906 118.454 275.033C119.357 275.577 119.966 276.224 120.282 276.976C120.598 277.728 120.65 278.501 120.439 279.295C120.281 279.89 120.02 280.412 119.658 280.862C119.313 281.302 118.877 281.656 118.35 281.926C117.841 282.185 117.268 282.344 116.63 282.402C115.992 282.46 115.312 282.392 114.589 282.2C114.051 282.057 113.617 281.888 113.289 281.695C112.961 281.501 112.688 281.33 112.47 281.181C112.329 281.083 112.199 281.002 112.079 280.94C111.962 280.864 111.841 280.809 111.713 280.775L111.522 280.724L111.957 279.087L112.17 279.143C112.403 279.751 112.752 280.262 113.219 280.675C113.704 281.077 114.237 281.355 114.818 281.51C115.329 281.646 115.812 281.683 116.268 281.622C116.728 281.547 117.14 281.399 117.502 281.177C117.879 280.958 118.189 280.677 118.433 280.332C118.691 279.99 118.874 279.614 118.983 279.203C119.097 278.778 119.121 278.344 119.056 277.902C118.996 277.446 118.851 277.02 118.622 276.626C118.393 276.231 118.077 275.881 117.672 275.576C117.282 275.275 116.803 275.049 116.236 274.898L115.258 274.638L115.445 273.936L116.529 274.225C116.968 274.342 117.37 274.373 117.734 274.318C118.112 274.266 118.446 274.15 118.737 273.97C119.028 273.789 119.269 273.565 119.462 273.298C119.655 273.03 119.794 272.733 119.881 272.408C119.96 272.11 119.981 271.804 119.943 271.491C119.919 271.181 119.829 270.891 119.673 270.622C119.521 270.339 119.308 270.085 119.034 269.86C118.774 269.639 118.445 269.476 118.048 269.37C117.566 269.242 117.049 269.248 116.495 269.389C115.942 269.531 115.43 269.827 114.961 270.279L114.748 270.222L115.19 268.564Z" fill="#D4BB85"/>
<path d="M137.839 286.377L136.809 286.285L142.621 274.459L136.902 273.946C136.727 273.93 136.543 273.928 136.35 273.94C136.174 273.939 136.001 273.975 135.832 274.048C135.68 274.108 135.544 274.221 135.426 274.387C135.324 274.54 135.261 274.755 135.236 275.033L135.017 275.013L135.237 272.559L144.221 273.366L137.839 286.377Z" fill="#D4BB85"/>
<path d="M151.53 287L150.496 287.012L155.078 274.658L149.337 274.727C149.161 274.729 148.978 274.746 148.787 274.777C148.612 274.794 148.444 274.848 148.283 274.938C148.138 275.013 148.014 275.139 147.914 275.316C147.828 275.478 147.786 275.699 147.79 275.978L147.57 275.98L147.54 273.516L156.56 273.408L151.53 287Z" fill="#D4BB85"/>
<path d="M164.538 278.186C164.012 278.241 163.563 278.384 163.189 278.614C162.828 278.829 162.532 279.103 162.301 279.437C162.085 279.769 161.932 280.139 161.842 280.546C161.766 280.952 161.751 281.367 161.795 281.79C161.848 282.301 161.974 282.804 162.173 283.299C162.387 283.793 162.661 284.229 162.995 284.607C163.343 284.969 163.742 285.259 164.192 285.477C164.641 285.681 165.143 285.754 165.697 285.696C166.193 285.644 166.621 285.504 166.98 285.275C167.338 285.031 167.624 284.736 167.839 284.389C168.067 284.026 168.217 283.627 168.289 283.192C168.376 282.755 168.397 282.318 168.351 281.88C168.3 281.384 168.168 280.904 167.958 280.439C167.762 279.973 167.498 279.566 167.167 279.217C166.848 278.852 166.466 278.575 166.018 278.385C165.571 278.196 165.077 278.13 164.538 278.186ZM167.268 274.251C167.004 273.984 166.695 273.78 166.342 273.64C166.002 273.499 165.687 273.443 165.395 273.474C164.724 273.544 164.158 273.772 163.697 274.159C163.235 274.532 162.861 274.977 162.575 275.493C162.305 276.008 162.104 276.56 161.974 277.148C161.842 277.723 161.772 278.253 161.764 278.741C162.148 278.317 162.594 278.005 163.104 277.805C163.613 277.589 164.151 277.452 164.72 277.393C165.464 277.315 166.127 277.379 166.709 277.583C167.303 277.772 167.805 278.059 168.214 278.444C168.636 278.813 168.963 279.258 169.194 279.779C169.44 280.299 169.593 280.844 169.652 281.413C169.711 281.982 169.675 282.553 169.543 283.127C169.411 283.701 169.179 284.227 168.845 284.704C168.51 285.167 168.072 285.559 167.53 285.881C167.003 286.201 166.368 286.4 165.624 286.478C164.807 286.563 164.083 286.484 163.453 286.24C162.823 285.996 162.292 285.639 161.859 285.168C161.425 284.682 161.078 284.106 160.817 283.44C160.57 282.773 160.408 282.067 160.33 281.323C160.23 280.361 160.262 279.392 160.425 278.416C160.602 277.424 160.913 276.522 161.359 275.708C161.804 274.88 162.38 274.186 163.089 273.626C163.797 273.065 164.64 272.734 165.617 272.632C165.821 272.611 166.034 272.603 166.256 272.61C166.493 272.614 166.7 272.622 166.878 272.633C166.967 272.639 167.056 272.644 167.145 272.65C167.249 272.653 167.308 272.655 167.322 272.653L167.487 274.229L167.268 274.251Z" fill="#D4BB85"/>
<path d="M191.31 276.6C191.456 277.092 191.507 277.62 191.461 278.185C191.425 278.731 191.276 279.258 191.013 279.764C190.751 280.271 190.363 280.739 189.848 281.168C189.343 281.578 188.704 281.899 187.93 282.129C187.551 282.243 187.166 282.311 186.775 282.336C186.385 282.361 186.015 282.379 185.667 282.391C185.407 282.392 185.172 282.401 184.963 282.417C184.749 282.419 184.565 282.444 184.411 282.49L183.914 280.824C184.426 281.207 185.019 281.451 185.694 281.556C186.382 281.657 187.028 281.618 187.632 281.438C188.181 281.274 188.633 281.048 188.991 280.757C189.348 280.467 189.618 280.142 189.802 279.781C189.995 279.402 190.096 278.997 190.105 278.566C190.124 278.116 190.065 277.66 189.926 277.196C189.759 276.634 189.514 276.171 189.191 275.808C188.883 275.441 188.532 275.163 188.139 274.974C187.742 274.771 187.319 274.66 186.869 274.641C186.434 274.617 186.012 274.666 185.605 274.788C185.155 274.922 184.694 275.174 184.223 275.544C183.748 275.9 183.294 276.38 182.861 276.983L183.455 269.116L188.726 267.545L188.656 268.851L184.249 270.164C184.199 270.868 184.134 271.599 184.054 272.358C183.988 273.112 183.932 273.848 183.885 274.566C184.177 274.311 184.462 274.111 184.74 273.967C185.018 273.822 185.326 273.7 185.664 273.6C186.226 273.432 186.796 273.369 187.375 273.411C187.954 273.453 188.501 273.595 189.018 273.839C189.534 274.083 189.992 274.437 190.39 274.9C190.802 275.358 191.109 275.925 191.31 276.6Z" fill="#D4BB85"/>
<path d="M192.069 266.858L192.255 266.788C192.364 266.747 192.473 266.682 192.581 266.594C192.689 266.506 192.808 266.407 192.938 266.295C193.14 266.124 193.391 265.936 193.689 265.729C193.982 265.508 194.368 265.307 194.848 265.126C195.397 264.918 195.915 264.817 196.403 264.821C196.899 264.806 197.343 264.881 197.735 265.046C198.135 265.193 198.478 265.416 198.764 265.716C199.063 266.01 199.286 266.35 199.431 266.734C199.633 267.269 199.663 267.846 199.52 268.464C199.391 269.077 199.048 269.662 198.49 270.217C199.54 270.134 200.412 270.306 201.107 270.733C201.802 271.161 202.294 271.759 202.584 272.527C202.802 273.103 202.895 273.68 202.862 274.257C202.837 274.815 202.69 275.357 202.418 275.883C202.155 276.39 201.781 276.852 201.296 277.271C200.811 277.689 200.219 278.03 199.52 278.295C198.998 278.492 198.548 278.607 198.169 278.641C197.789 278.674 197.468 278.694 197.203 278.7C197.032 278.702 196.879 278.713 196.745 278.732C196.606 278.738 196.475 278.764 196.351 278.81L196.166 278.88L195.567 277.296L195.773 277.218C196.316 277.577 196.898 277.788 197.518 277.852C198.146 277.897 198.742 277.813 199.304 277.6C199.798 277.414 200.213 277.163 200.548 276.848C200.879 276.519 201.127 276.159 201.292 275.767C201.472 275.37 201.56 274.96 201.557 274.538C201.568 274.111 201.498 273.698 201.348 273.3C201.192 272.888 200.96 272.522 200.65 272.2C200.335 271.864 199.969 271.602 199.553 271.415C199.138 271.227 198.676 271.127 198.17 271.114C197.677 271.097 197.157 271.192 196.608 271.399L195.661 271.757L195.404 271.078L196.454 270.681C196.879 270.52 197.224 270.312 197.488 270.055C197.765 269.794 197.969 269.505 198.101 269.188C198.232 268.872 198.298 268.549 198.299 268.22C198.3 267.89 198.241 267.568 198.121 267.252C198.013 266.964 197.851 266.703 197.638 266.471C197.438 266.232 197.197 266.049 196.913 265.921C196.624 265.78 196.303 265.697 195.949 265.674C195.609 265.646 195.247 265.704 194.863 265.849C194.397 266.026 193.98 266.332 193.612 266.769C193.244 267.206 193 267.745 192.882 268.386L192.676 268.463L192.069 266.858Z" fill="#D4BB85"/>
<path d="M223.212 261.897C223.564 262.438 223.761 262.984 223.804 263.533C223.85 264.063 223.777 264.583 223.584 265.093C223.395 265.583 223.105 266.052 222.713 266.499C222.314 266.933 221.843 267.326 221.302 267.678C220.798 268.006 220.266 268.264 219.707 268.453C219.139 268.629 218.581 268.712 218.032 268.702C217.475 268.679 216.952 268.547 216.462 268.305C215.985 268.056 215.575 267.667 215.231 267.138C214.775 266.437 214.577 265.674 214.635 264.849C214.685 264.011 215.078 263.162 215.812 262.299C214.903 262.435 214.147 262.402 213.543 262.2C212.944 261.977 212.444 261.559 212.044 260.944C211.749 260.489 211.585 260.035 211.554 259.583C211.527 259.111 211.591 258.658 211.746 258.225C211.914 257.783 212.165 257.375 212.499 257.001C212.825 256.614 213.197 256.285 213.615 256.013C214.033 255.741 214.485 255.535 214.971 255.394C215.461 255.233 215.941 255.166 216.413 255.191C216.885 255.217 217.335 255.344 217.763 255.573C218.196 255.782 218.564 256.119 218.868 256.587C219.228 257.14 219.379 257.777 219.322 258.496C219.265 259.215 219.021 259.89 218.591 260.519C219.497 260.245 220.364 260.206 221.192 260.403C222.011 260.588 222.685 261.086 223.212 261.897ZM217.978 257.559C217.738 257.19 217.439 256.904 217.079 256.7C216.732 256.489 216.367 256.358 215.985 256.309C215.595 256.248 215.205 256.266 214.813 256.363C214.426 256.44 214.072 256.582 213.752 256.79C213.506 256.95 213.291 257.142 213.105 257.368C212.919 257.594 212.782 257.84 212.694 258.108C212.605 258.375 212.571 258.66 212.592 258.961C212.625 259.254 212.738 259.548 212.93 259.843C213.145 260.175 213.425 260.431 213.769 260.61C214.113 260.789 214.486 260.905 214.888 260.958C215.302 261.004 215.731 261.005 216.175 260.961C216.623 260.897 217.056 260.809 217.472 260.696C217.881 260.115 218.138 259.554 218.242 259.014C218.346 258.474 218.258 257.989 217.978 257.559ZM222.542 262.884C222.318 262.54 222.014 262.274 221.63 262.086C221.245 261.899 220.807 261.79 220.315 261.76C219.816 261.717 219.28 261.742 218.71 261.833C218.143 261.903 217.573 262.021 216.997 262.185C216.749 262.504 216.536 262.835 216.357 263.178C216.178 263.522 216.052 263.866 215.979 264.211C215.906 264.556 215.888 264.892 215.924 265.218C215.961 265.543 216.072 265.848 216.256 266.131C216.495 266.5 216.809 266.794 217.197 267.014C217.585 267.234 218.005 267.382 218.455 267.456C218.898 267.518 219.348 267.497 219.805 267.392C220.261 267.288 220.687 267.108 221.08 266.852C221.412 266.636 221.712 266.371 221.98 266.057C222.253 265.722 222.462 265.385 222.608 265.045C222.759 264.685 222.836 264.319 222.841 263.949C222.857 263.571 222.758 263.216 222.542 262.884Z" fill="#D4BB85"/>
<path d="M233.862 258.436L233.727 258.262C233.889 258.136 233.992 258.018 234.036 257.909C234.084 257.778 234.093 257.659 234.065 257.551C234.038 257.423 233.985 257.307 233.903 257.203C233.825 257.078 233.74 256.958 233.65 256.842L232.322 255.144L227.59 258.844L226.957 245.962L232.771 253.397L233.828 252.57L234.505 253.437L233.448 254.263L234.776 255.962C234.957 256.193 235.165 256.375 235.399 256.508C235.636 256.621 235.893 256.569 236.17 256.352L236.306 256.525L233.862 258.436ZM227.85 249.425C227.914 250.697 227.968 251.957 228.014 253.206C228.071 254.446 228.132 255.702 228.195 256.974L231.644 254.277L227.85 249.425Z" fill="#D4BB85"/>
</g>
<defs>
<clipPath id="clip0_1_4">
<rect width="300" height="300" fill="white"/>
</clipPath>
</defs>
</svg>
